<svg id="svg" version="1.1" xmlns="http://www.w3.org/2000/svg" xmlns:xlink="http://www.w3.org/1999/xlink" width="400" height="400" viewBox="0, 0, 400,400"><g id="svgg"><path id="path0" d="M192.000 133.600 C 186.393 133.752,184.988 133.886,186.200 134.155 C 191.072 135.234,194.605 138.529,196.016 143.309 L 196.575 145.200 200.069 145.200 L 203.562 145.200 203.979 143.700 C 204.208 142.875,204.397 142.063,204.398 141.895 C 204.416 139.339,209.360 135.426,214.200 134.136 C 216.297 133.577,203.915 133.278,192.000 133.600 M135.200 140.442 C 134.650 140.608,133.390 140.949,132.400 141.199 C 131.410 141.449,130.047 141.822,129.372 142.027 C 128.696 142.232,127.773 142.400,127.321 142.400 C 126.149 142.400,125.525 143.337,125.673 144.874 L 125.800 146.200 130.279 146.313 L 134.759 146.426 135.003 144.913 C 135.137 144.081,135.504 142.693,135.819 141.829 C 136.483 140.007,136.501 140.049,135.200 140.442 M264.618 142.450 C 264.938 143.358,265.200 144.624,265.200 145.263 L 265.200 146.426 269.700 146.313 L 274.200 146.200 274.327 144.874 C 274.492 143.161,273.829 142.400,272.175 142.400 C 271.445 142.400,270.736 142.220,270.600 142.000 C 270.464 141.780,269.744 141.600,269.000 141.600 C 268.256 141.600,267.536 141.420,267.400 141.200 C 267.264 140.980,266.451 140.800,265.594 140.800 L 264.035 140.800 264.618 142.450 M111.400 147.600 C 111.264 147.820,110.801 148.000,110.371 148.000 C 109.941 148.000,109.277 148.159,108.895 148.353 C 108.513 148.548,107.660 148.929,107.000 149.200 C 104.487 150.232,104.597 149.984,104.638 154.501 C 104.672 158.242,104.780 158.851,105.625 160.051 C 106.843 161.783,107.185 162.103,108.400 162.650 C 110.804 163.732,111.722 164.000,113.030 164.000 L 114.422 164.000 114.173 161.300 C 114.036 159.815,113.762 157.970,113.564 157.200 C 113.366 156.430,113.203 153.865,113.202 151.500 C 113.200 147.253,112.522 145.785,111.400 147.600 M287.011 151.300 C 286.859 153.555,286.479 157.276,286.167 159.570 C 285.855 161.863,285.600 163.798,285.600 163.870 C 285.600 164.695,291.824 163.049,292.904 161.938 C 294.951 159.830,295.549 158.105,295.867 153.383 C 296.085 150.161,296.438 150.527,291.100 148.450 C 290.605 148.257,289.697 147.897,289.081 147.650 C 287.321 146.942,287.301 146.976,287.011 151.300 M196.024 159.500 C 194.515 166.386,187.214 174.400,182.449 174.400 C 182.008 174.400,181.536 174.580,181.400 174.800 C 181.012 175.428,145.223 175.335,143.172 174.700 C 137.878 173.062,134.800 168.079,134.800 161.145 L 134.800 158.800 130.800 158.800 L 126.800 158.800 126.800 160.272 C 126.800 161.081,126.968 162.296,127.173 162.972 C 127.378 163.647,127.764 165.010,128.030 166.000 C 129.651 172.029,133.863 182.088,136.489 186.200 C 141.174 193.536,148.791 202.020,154.400 206.149 C 155.830 207.201,157.511 208.453,158.135 208.931 C 170.396 218.313,193.336 223.599,210.600 221.021 C 219.641 219.671,235.053 214.147,238.000 211.200 C 238.110 211.090,238.605 210.775,239.100 210.500 C 239.595 210.225,240.405 209.775,240.900 209.500 C 241.395 209.225,241.890 208.905,242.000 208.789 C 242.110 208.673,243.730 207.375,245.600 205.905 C 249.676 202.700,254.371 198.216,256.808 195.200 C 257.786 193.990,258.860 192.730,259.195 192.400 C 259.531 192.070,260.060 191.305,260.370 190.700 C 260.681 190.095,261.085 189.600,261.268 189.600 C 261.450 189.600,261.600 189.426,261.600 189.212 C 261.600 188.999,262.405 187.580,263.389 186.059 C 265.384 182.975,268.771 175.962,269.599 173.200 C 269.896 172.210,270.288 171.229,270.470 171.020 C 270.651 170.811,270.800 170.314,270.800 169.915 C 270.800 169.516,270.962 168.877,271.161 168.495 C 271.360 168.113,271.705 167.080,271.929 166.200 C 272.153 165.320,272.531 163.859,272.768 162.954 C 273.006 162.048,273.200 160.743,273.200 160.054 L 273.200 158.800 269.200 158.800 L 265.200 158.800 265.194 162.100 C 265.183 168.099,262.881 172.029,258.088 174.230 L 255.976 175.200 237.917 175.200 C 225.880 175.200,219.380 175.053,218.428 174.759 C 210.955 172.450,205.461 166.636,204.011 159.500 L 203.543 157.200 200.035 157.200 L 196.527 157.200 196.024 159.500 M174.400 233.331 C 174.400 234.773,174.220 236.064,174.000 236.200 C 173.780 236.336,173.600 236.977,173.600 237.624 L 173.600 238.800 199.244 238.800 L 224.888 238.800 224.618 237.300 C 224.469 236.475,224.254 234.765,224.138 233.500 C 224.023 232.235,223.809 231.200,223.662 231.200 C 223.515 231.200,221.416 231.642,218.997 232.182 C 206.565 234.957,192.976 234.943,181.000 232.143 C 178.580 231.577,176.105 231.023,175.500 230.912 L 174.400 230.709 174.400 233.331 M87.552 251.669 C 85.663 252.172,83.631 254.302,83.178 256.251 C 82.975 257.126,82.815 281.694,82.810 312.700 L 82.800 367.600 200.000 367.600 L 317.200 367.600 317.190 312.700 C 317.179 249.414,317.499 253.531,312.471 251.818 C 310.311 251.082,90.300 250.936,87.552 251.669 M206.180 290.837 C 206.389 291.036,206.895 291.200,207.305 291.200 C 210.925 291.200,219.382 298.125,221.746 303.025 C 222.376 304.331,223.051 305.713,223.246 306.095 C 223.441 306.477,223.600 307.116,223.600 307.515 C 223.600 307.914,223.806 308.446,224.058 308.698 C 224.359 308.999,224.516 311.094,224.516 314.800 C 224.516 318.506,224.359 320.601,224.058 320.902 C 223.806 321.154,223.600 321.686,223.600 322.085 C 223.600 322.484,223.441 323.123,223.247 323.505 C 223.052 323.887,222.648 324.740,222.347 325.400 C 222.047 326.060,221.711 326.690,221.600 326.800 C 221.489 326.910,221.129 327.540,220.799 328.200 C 219.832 330.137,214.687 335.039,212.353 336.248 C 200.071 342.610,184.375 338.461,178.805 327.379 C 178.258 326.291,177.711 325.310,177.589 325.200 C 177.466 325.090,177.131 324.190,176.844 323.200 C 176.557 322.210,176.139 321.055,175.916 320.634 C 175.326 319.518,175.389 310.475,176.000 308.581 C 176.651 306.566,177.182 305.210,177.717 304.200 C 177.949 303.760,178.513 302.681,178.970 301.802 C 179.957 299.903,184.898 294.851,186.600 294.001 C 187.260 293.671,187.890 293.301,188.000 293.178 C 188.418 292.713,192.023 291.200,192.716 291.200 C 193.114 291.200,193.611 291.031,193.820 290.824 C 194.640 290.012,205.330 290.023,206.180 290.837 M196.400 302.881 C 195.850 303.116,194.860 303.544,194.200 303.831 C 192.801 304.439,189.550 307.750,188.928 309.200 C 187.767 311.908,187.600 312.604,187.606 314.719 C 187.631 324.092,197.825 330.174,205.935 325.655 C 210.875 322.903,213.811 315.898,211.944 311.319 C 210.691 308.247,210.290 307.584,208.753 306.047 C 207.216 304.510,206.553 304.109,203.481 302.856 C 202.094 302.291,197.746 302.306,196.400 302.881 " stroke="none" fill="#d1cbc4" fill-rule="evenodd"></path><path id="path1" d="M187.800 14.000 C 187.664 14.220,187.034 14.400,186.400 14.400 C 185.766 14.400,185.136 14.580,185.000 14.800 C 184.864 15.020,184.349 15.200,183.856 15.200 C 183.363 15.200,182.789 15.349,182.580 15.530 C 182.371 15.712,181.390 16.113,180.400 16.421 C 177.116 17.443,165.924 23.493,163.999 25.287 C 163.578 25.679,163.046 26.000,162.817 26.000 C 162.588 26.000,162.400 26.180,162.400 26.400 C 162.400 26.620,162.130 26.800,161.800 26.800 C 161.470 26.800,161.200 26.941,161.200 27.114 C 161.200 27.286,160.655 27.749,159.989 28.143 C 159.323 28.536,158.374 29.250,157.881 29.729 C 157.387 30.208,155.907 31.495,154.592 32.588 C 150.664 35.853,139.543 47.254,136.174 51.470 C 134.447 53.632,132.748 55.670,132.398 56.000 C 132.048 56.330,131.325 57.230,130.790 58.000 C 130.255 58.770,129.422 59.800,128.938 60.289 C 128.454 60.778,127.736 61.723,127.343 62.389 C 126.949 63.055,126.486 63.600,126.314 63.600 C 126.141 63.600,126.000 63.870,126.000 64.200 C 126.000 64.530,125.820 64.800,125.600 64.800 C 125.380 64.800,125.200 65.055,125.200 65.367 C 125.200 65.678,125.052 65.993,124.872 66.067 C 124.497 66.219,116.800 77.384,116.800 77.776 C 116.800 77.918,116.440 78.420,116.000 78.892 C 115.560 79.364,115.200 79.987,115.200 80.275 C 115.200 80.564,115.020 80.800,114.800 80.800 C 114.580 80.800,114.400 81.036,114.400 81.325 C 114.400 81.613,114.085 82.207,113.700 82.645 C 113.049 83.385,112.537 84.189,111.438 86.200 C 111.197 86.640,110.910 87.090,110.799 87.200 C 110.689 87.310,110.329 87.940,110.000 88.600 C 109.671 89.260,109.311 89.890,109.201 90.000 C 109.090 90.110,108.775 90.605,108.500 91.100 C 108.225 91.595,107.775 92.405,107.500 92.900 C 107.225 93.395,106.910 93.890,106.800 94.000 C 106.690 94.110,105.945 95.460,105.144 97.000 C 104.343 98.540,102.786 101.510,101.683 103.600 C 100.580 105.690,99.255 108.210,98.739 109.200 C 98.222 110.190,97.665 111.060,97.500 111.133 C 97.335 111.207,97.200 111.612,97.200 112.033 C 97.200 112.455,97.020 112.800,96.800 112.800 C 96.580 112.800,96.400 113.052,96.400 113.359 C 96.400 113.667,95.860 114.945,95.200 116.200 C 94.540 117.455,94.000 118.733,94.000 119.041 C 94.000 119.348,93.820 119.600,93.600 119.600 C 93.380 119.600,93.200 119.960,93.200 120.400 C 93.200 120.840,93.020 121.200,92.800 121.200 C 92.580 121.200,92.400 121.560,92.400 122.000 C 92.400 122.440,92.220 122.800,92.000 122.800 C 91.780 122.800,91.600 123.072,91.600 123.405 C 91.600 123.738,91.422 124.323,91.203 124.705 C 90.985 125.087,89.990 127.380,88.992 129.800 C 86.128 136.741,85.547 138.107,84.825 139.600 C 84.452 140.370,83.895 141.855,83.586 142.900 C 83.278 143.945,82.885 144.800,82.713 144.800 C 82.541 144.800,82.400 145.250,82.400 145.800 C 82.400 146.350,82.485 146.800,82.588 146.800 C 82.835 146.800,85.532 145.286,86.800 144.435 C 87.350 144.066,88.700 143.346,89.800 142.835 C 90.900 142.324,92.492 141.567,93.338 141.153 C 94.184 140.739,95.129 140.400,95.438 140.400 C 95.747 140.400,96.000 140.220,96.000 140.000 C 96.000 139.780,96.360 139.600,96.800 139.600 C 97.240 139.600,97.600 139.420,97.600 139.200 C 97.600 138.980,97.872 138.800,98.205 138.800 C 98.538 138.800,99.123 138.641,99.505 138.447 C 99.887 138.252,100.650 137.916,101.200 137.700 C 101.750 137.484,102.650 137.121,103.200 136.894 C 103.750 136.667,104.830 136.264,105.600 136.000 C 107.293 135.418,108.760 134.829,109.695 134.353 C 110.077 134.159,110.754 134.000,111.200 134.000 C 111.646 134.000,112.323 133.836,112.705 133.636 C 114.370 132.763,126.740 129.285,129.365 128.952 C 130.484 128.810,131.580 128.559,131.800 128.394 C 132.184 128.107,133.560 127.829,137.000 127.344 C 137.880 127.220,138.771 126.956,138.980 126.759 C 139.189 126.562,140.123 126.400,141.056 126.400 C 141.989 126.400,142.864 126.220,143.000 126.000 C 143.136 125.780,144.216 125.600,145.400 125.600 C 146.584 125.600,147.664 125.420,147.800 125.200 C 147.936 124.980,148.901 124.800,149.944 124.800 C 150.987 124.800,152.011 124.635,152.220 124.434 C 152.429 124.232,153.680 123.966,155.000 123.842 C 156.320 123.718,158.975 123.433,160.900 123.208 C 162.825 122.984,165.975 122.618,167.900 122.396 C 176.325 121.423,184.085 121.114,200.000 121.118 C 219.002 121.123,223.930 121.384,239.200 123.188 C 241.070 123.409,243.680 123.698,245.000 123.830 C 246.320 123.962,247.571 124.235,247.780 124.435 C 247.989 124.636,249.103 124.800,250.256 124.800 C 251.409 124.800,252.464 124.980,252.600 125.200 C 252.736 125.420,253.816 125.600,255.000 125.600 C 256.184 125.600,257.264 125.780,257.400 126.000 C 257.536 126.220,258.321 126.400,259.144 126.400 C 259.967 126.400,260.811 126.562,261.020 126.759 C 261.229 126.956,262.120 127.215,263.000 127.333 C 263.880 127.451,265.410 127.732,266.400 127.957 C 267.390 128.181,269.106 128.536,270.214 128.745 C 271.322 128.954,274.106 129.673,276.401 130.343 C 281.134 131.725,281.074 131.731,280.282 129.932 C 279.959 129.200,279.418 127.970,279.079 127.200 C 278.740 126.430,278.107 124.900,277.672 123.800 C 276.637 121.183,266.490 100.495,265.606 99.200 C 265.230 98.650,264.239 96.940,263.402 95.400 C 243.879 59.452,219.056 29.811,198.079 17.398 C 191.980 13.790,188.617 12.678,187.800 14.000 M68.602 286.900 C 67.980 287.615,66.555 289.195,65.436 290.412 C 63.090 292.961,61.825 294.543,60.889 296.100 C 60.525 296.705,60.086 297.200,59.914 297.200 C 59.741 297.200,59.600 297.455,59.600 297.767 C 59.600 298.078,59.434 298.393,59.232 298.467 C 58.160 298.855,48.000 316.732,48.000 318.229 C 48.000 318.543,47.820 318.800,47.600 318.800 C 47.380 318.800,47.200 319.045,47.200 319.344 C 47.200 319.848,44.857 324.752,44.402 325.200 C 44.290 325.310,43.954 325.875,43.655 326.456 C 43.356 327.037,42.637 327.733,42.056 328.003 C 41.475 328.273,40.687 328.652,40.305 328.847 C 39.322 329.347,37.725 329.285,36.804 328.710 C 35.924 328.160,34.837 329.140,34.813 330.505 C 34.806 330.893,34.620 331.568,34.400 332.005 C 34.180 332.442,33.820 333.158,33.600 333.595 C 33.380 334.032,33.200 334.752,33.200 335.195 C 33.200 335.638,33.020 336.000,32.800 336.000 C 32.580 336.000,32.400 336.540,32.400 337.200 C 32.400 337.860,32.258 338.400,32.085 338.400 C 31.912 338.400,31.727 338.960,31.675 339.645 C 31.623 340.329,31.391 341.242,31.160 341.674 C 30.813 342.323,30.884 342.497,31.570 342.676 C 32.027 342.796,32.400 343.052,32.400 343.247 C 32.400 343.441,32.639 343.600,32.930 343.600 C 35.925 343.600,36.622 348.006,34.779 355.300 C 34.571 356.125,34.205 357.565,33.967 358.500 C 33.730 359.435,33.440 360.876,33.325 361.703 C 33.210 362.529,32.955 363.305,32.758 363.426 C 32.561 363.548,32.400 364.321,32.400 365.144 C 32.400 365.967,32.238 366.811,32.041 367.020 C 31.844 367.229,31.579 368.120,31.453 369.000 C 31.326 369.880,31.030 371.770,30.794 373.200 C 30.558 374.630,30.266 376.700,30.146 377.800 C 30.025 378.900,29.763 379.971,29.563 380.180 C 29.363 380.389,29.200 381.503,29.200 382.656 C 29.200 383.809,29.020 384.864,28.800 385.000 C 28.127 385.416,28.355 386.748,29.174 387.186 C 29.655 387.444,34.262 387.600,41.374 387.600 L 52.800 387.600 52.800 384.328 C 52.800 376.893,58.770 368.400,63.996 368.400 C 64.412 368.400,64.864 368.220,65.000 368.000 C 65.136 367.780,66.317 367.600,67.624 367.600 L 70.000 367.600 70.000 326.600 C 70.000 304.050,69.940 285.600,69.866 285.600 C 69.792 285.600,69.224 286.185,68.602 286.900 M330.044 363.900 C 330.004 367.250,330.070 367.600,330.740 367.600 C 331.528 367.600,331.497 366.977,330.462 362.000 C 330.121 360.360,330.084 360.529,330.044 363.900 " stroke="none" fill="#1c638b" fill-rule="evenodd"></path><path id="path2" d="M194.600 12.232 C 180.319 14.206,169.166 19.616,155.000 31.440 C 149.878 35.715,138.251 47.553,134.806 52.000 C 134.039 52.990,133.190 54.070,132.919 54.400 C 128.566 59.713,121.417 69.320,119.000 73.105 C 118.780 73.450,117.353 75.637,115.828 77.966 C 104.468 95.319,90.121 123.602,82.837 143.000 C 82.342 144.320,81.770 145.713,81.568 146.095 C 80.307 148.474,80.993 148.428,85.587 145.827 C 87.698 144.632,90.859 142.990,92.612 142.179 C 99.718 138.891,100.837 138.400,101.215 138.400 C 101.433 138.400,101.923 138.234,102.305 138.032 C 102.687 137.830,104.080 137.272,105.400 136.793 C 106.720 136.314,108.160 135.778,108.600 135.601 C 110.012 135.036,111.728 134.476,114.800 133.578 C 116.450 133.097,118.790 132.377,120.000 131.980 C 121.210 131.583,124.630 130.683,127.600 129.980 C 135.687 128.066,138.870 127.191,137.000 127.395 C 134.228 127.697,132.214 128.084,131.800 128.394 C 131.580 128.559,130.484 128.810,129.365 128.952 C 126.740 129.285,114.370 132.763,112.705 133.636 C 112.323 133.836,111.646 134.000,111.200 134.000 C 110.754 134.000,110.077 134.159,109.695 134.353 C 108.760 134.829,107.293 135.418,105.600 136.000 C 103.236 136.812,100.785 137.796,99.505 138.447 C 99.123 138.641,98.538 138.800,98.205 138.800 C 97.872 138.800,97.600 138.980,97.600 139.200 C 97.600 139.420,97.240 139.600,96.800 139.600 C 96.360 139.600,96.000 139.780,96.000 140.000 C 96.000 140.220,95.747 140.400,95.438 140.400 C 95.129 140.400,94.184 140.739,93.338 141.153 C 92.492 141.567,90.900 142.324,89.800 142.835 C 88.700 143.346,87.350 144.066,86.800 144.435 C 85.532 145.286,82.835 146.800,82.588 146.800 C 82.485 146.800,82.400 146.350,82.400 145.800 C 82.400 145.250,82.541 144.800,82.713 144.800 C 82.885 144.800,83.278 143.945,83.586 142.900 C 83.895 141.855,84.452 140.370,84.825 139.600 C 85.547 138.107,86.128 136.741,88.992 129.800 C 89.990 127.380,90.985 125.087,91.203 124.705 C 91.422 124.323,91.600 123.738,91.600 123.405 C 91.600 123.072,91.780 122.800,92.000 122.800 C 92.220 122.800,92.400 122.440,92.400 122.000 C 92.400 121.560,92.580 121.200,92.800 121.200 C 93.020 121.200,93.200 120.840,93.200 120.400 C 93.200 119.960,93.380 119.600,93.600 119.600 C 93.820 119.600,94.000 119.348,94.000 119.041 C 94.000 118.733,94.540 117.455,95.200 116.200 C 95.860 114.945,96.400 113.667,96.400 113.359 C 96.400 113.052,96.580 112.800,96.800 112.800 C 97.020 112.800,97.200 112.455,97.200 112.033 C 97.200 111.612,97.335 111.207,97.500 111.133 C 97.665 111.060,98.222 110.190,98.739 109.200 C 99.255 108.210,100.580 105.690,101.683 103.600 C 102.786 101.510,104.343 98.540,105.144 97.000 C 105.945 95.460,106.690 94.110,106.800 94.000 C 106.910 93.890,107.225 93.395,107.500 92.900 C 107.775 92.405,108.225 91.595,108.500 91.100 C 108.775 90.605,109.090 90.110,109.201 90.000 C 109.311 89.890,109.671 89.260,110.000 88.600 C 110.329 87.940,110.689 87.310,110.799 87.200 C 110.910 87.090,111.225 86.595,111.500 86.100 C 112.741 83.865,113.043 83.392,113.700 82.645 C 114.085 82.207,114.400 81.613,114.400 81.325 C 114.400 81.036,114.580 80.800,114.800 80.800 C 115.020 80.800,115.200 80.564,115.200 80.275 C 115.200 79.987,115.560 79.364,116.000 78.892 C 116.440 78.420,116.800 77.918,116.800 77.776 C 116.800 77.384,124.497 66.219,124.872 66.067 C 125.052 65.993,125.200 65.678,125.200 65.367 C 125.200 65.055,125.380 64.800,125.600 64.800 C 125.820 64.800,126.000 64.530,126.000 64.200 C 126.000 63.870,126.141 63.600,126.314 63.600 C 126.486 63.600,126.949 63.055,127.343 62.389 C 127.736 61.723,128.454 60.778,128.938 60.289 C 129.422 59.800,130.255 58.770,130.790 58.000 C 131.325 57.230,132.048 56.330,132.398 56.000 C 132.748 55.670,134.447 53.632,136.174 51.470 C 139.543 47.254,150.664 35.853,154.592 32.588 C 155.907 31.495,157.387 30.208,157.881 29.729 C 158.374 29.250,159.323 28.536,159.989 28.143 C 160.655 27.749,161.200 27.286,161.200 27.114 C 161.200 26.941,161.470 26.800,161.800 26.800 C 162.130 26.800,162.400 26.620,162.400 26.400 C 162.400 26.180,162.588 26.000,162.817 26.000 C 163.046 26.000,163.578 25.679,163.999 25.287 C 165.924 23.493,177.116 17.443,180.400 16.421 C 181.390 16.113,182.371 15.712,182.580 15.530 C 182.789 15.349,183.363 15.200,183.856 15.200 C 184.349 15.200,184.864 15.020,185.000 14.800 C 185.136 14.580,185.766 14.400,186.400 14.400 C 187.034 14.400,187.664 14.220,187.800 14.000 C 188.617 12.678,191.980 13.790,198.079 17.398 C 219.056 29.811,243.879 59.452,263.402 95.400 C 264.239 96.940,265.230 98.650,265.606 99.200 C 266.490 100.495,276.637 121.183,277.672 123.800 C 278.472 125.824,278.952 126.957,280.187 129.732 C 281.087 131.757,281.190 131.741,276.401 130.343 C 274.106 129.673,271.322 128.954,270.214 128.745 C 269.106 128.536,267.390 128.181,266.400 127.957 C 265.410 127.732,263.880 127.451,263.000 127.333 C 262.120 127.215,261.229 126.956,261.020 126.759 C 260.811 126.562,259.967 126.400,259.144 126.400 C 258.321 126.400,257.536 126.220,257.400 126.000 C 257.264 125.780,256.184 125.600,255.000 125.600 C 253.816 125.600,252.736 125.420,252.600 125.200 C 252.464 124.980,251.409 124.800,250.256 124.800 C 249.103 124.800,247.989 124.636,247.780 124.435 C 247.571 124.235,246.320 123.962,245.000 123.830 C 243.680 123.698,241.070 123.409,239.200 123.188 C 223.930 121.384,219.002 121.123,200.000 121.118 C 184.085 121.114,176.325 121.423,167.900 122.396 C 165.975 122.618,162.825 122.984,160.900 123.208 C 158.975 123.433,156.320 123.718,155.000 123.842 C 153.680 123.966,152.429 124.232,152.220 124.434 C 152.011 124.635,150.987 124.800,149.944 124.800 C 148.901 124.800,147.936 124.980,147.800 125.200 C 147.664 125.420,146.584 125.600,145.400 125.600 C 144.216 125.600,143.136 125.780,143.000 126.000 C 142.864 126.220,141.964 126.400,141.000 126.400 C 140.036 126.400,139.136 126.580,139.000 126.800 C 138.642 127.378,139.149 127.324,146.261 126.025 C 149.798 125.379,155.011 124.568,157.846 124.222 C 160.681 123.877,164.350 123.425,166.000 123.218 C 169.286 122.806,177.087 122.201,186.962 121.592 C 204.832 120.491,228.597 121.939,250.400 125.458 C 258.471 126.760,271.687 129.601,278.000 131.389 C 280.750 132.168,283.720 133.006,284.600 133.251 C 285.480 133.496,286.920 133.961,287.800 134.286 C 288.680 134.610,290.210 135.138,291.200 135.458 C 292.190 135.778,293.360 136.202,293.800 136.400 C 294.240 136.598,295.500 137.051,296.600 137.407 C 297.700 137.763,299.921 138.672,301.536 139.427 C 303.150 140.182,304.533 140.800,304.608 140.800 C 305.107 140.800,310.881 143.701,314.335 145.687 C 316.609 146.994,318.567 147.967,318.686 147.848 C 318.910 147.623,316.283 140.526,315.153 138.305 C 314.959 137.923,314.800 137.434,314.800 137.217 C 314.800 137.001,314.370 135.873,313.845 134.712 C 313.319 133.550,312.535 131.790,312.101 130.800 C 308.588 122.784,306.402 118.150,302.299 110.020 C 299.696 104.861,297.419 100.451,297.240 100.220 C 297.062 99.989,296.376 98.810,295.717 97.600 C 295.057 96.390,294.109 94.680,293.610 93.800 C 293.110 92.920,291.893 90.774,290.903 89.030 C 288.250 84.353,288.138 82.037,290.439 79.416 C 291.616 78.076,291.861 75.600,290.817 75.600 C 290.641 75.600,290.273 75.060,290.000 74.400 C 289.727 73.740,289.367 73.200,289.200 73.200 C 289.033 73.200,288.673 72.660,288.400 72.000 C 288.127 71.340,287.745 70.800,287.551 70.800 C 287.358 70.800,287.200 70.564,287.200 70.275 C 287.200 69.987,286.885 69.402,286.500 68.975 C 286.115 68.549,285.545 67.705,285.232 67.100 C 284.920 66.495,284.515 66.000,284.332 66.000 C 284.150 66.000,284.000 65.730,284.000 65.400 C 284.000 64.619,282.850 64.637,281.237 65.442 C 278.053 67.030,275.901 65.722,270.928 59.177 C 262.784 48.458,251.772 36.937,242.200 29.121 C 236.130 24.164,221.506 15.600,219.111 15.600 C 218.808 15.600,218.389 15.447,218.180 15.259 C 217.775 14.897,214.151 13.838,210.200 12.928 C 207.854 12.387,196.983 11.902,194.600 12.232 M189.700 133.096 C 190.965 133.175,193.035 133.175,194.300 133.096 C 195.565 133.016,194.530 132.951,192.000 132.951 C 189.470 132.951,188.435 133.016,189.700 133.096 M205.700 133.096 C 206.965 133.175,209.035 133.175,210.300 133.096 C 211.565 133.016,210.530 132.951,208.000 132.951 C 205.470 132.951,204.435 133.016,205.700 133.096 M183.300 133.476 C 183.685 133.576,184.315 133.576,184.700 133.476 C 185.085 133.375,184.770 133.293,184.000 133.293 C 183.230 133.293,182.915 133.375,183.300 133.476 M175.600 134.000 C 175.600 134.220,176.230 134.400,177.000 134.400 C 177.770 134.400,178.400 134.220,178.400 134.000 C 178.400 133.780,177.770 133.600,177.000 133.600 C 176.230 133.600,175.600 133.780,175.600 134.000 M221.600 134.000 C 221.600 134.220,222.230 134.400,223.000 134.400 C 223.770 134.400,224.400 134.220,224.400 134.000 C 224.400 133.780,223.770 133.600,223.000 133.600 C 222.230 133.600,221.600 133.780,221.600 134.000 M207.375 138.100 L 206.200 139.400 207.500 138.225 C 208.215 137.579,208.800 136.994,208.800 136.925 C 208.800 136.616,208.470 136.888,207.375 138.100 M125.225 142.570 C 124.958 142.892,124.819 143.896,124.906 144.870 L 125.060 146.600 125.130 144.720 C 125.179 143.404,125.410 142.717,125.900 142.432 C 126.285 142.208,126.397 142.019,126.149 142.012 C 125.901 142.005,125.485 142.257,125.225 142.570 M274.909 144.800 C 274.909 145.790,274.987 146.195,275.082 145.700 C 275.178 145.205,275.178 144.395,275.082 143.900 C 274.987 143.405,274.909 143.810,274.909 144.800 M147.200 154.800 L 147.200 163.200 161.994 163.200 C 178.942 163.200,179.525 163.122,182.097 160.501 L 183.800 158.766 183.943 152.583 L 184.085 146.400 165.643 146.400 L 147.200 146.400 147.200 154.800 M216.004 151.100 C 216.010 157.467,216.228 158.492,218.002 160.507 C 220.293 163.110,220.962 163.200,238.006 163.200 L 252.800 163.200 252.800 154.800 L 252.800 146.400 234.400 146.400 L 216.000 146.400 216.004 151.100 M128.100 147.096 C 129.365 147.175,131.435 147.175,132.700 147.096 C 133.965 147.016,132.930 146.951,130.400 146.951 C 127.870 146.951,126.835 147.016,128.100 147.096 M267.300 147.096 C 268.565 147.175,270.635 147.175,271.900 147.096 C 273.165 147.016,272.130 146.951,269.600 146.951 C 267.070 146.951,266.035 147.016,267.300 147.096 M295.483 149.620 C 295.748 149.961,296.026 151.761,296.101 153.620 L 296.237 157.000 296.319 153.549 C 296.386 150.675,296.283 150.006,295.700 149.549 C 295.085 149.067,295.059 149.075,295.483 149.620 M113.693 152.800 C 113.693 153.570,113.775 153.885,113.876 153.500 C 113.976 153.115,113.976 152.485,113.876 152.100 C 113.775 151.715,113.693 152.030,113.693 152.800 M286.093 153.200 C 286.093 153.970,286.175 154.285,286.276 153.900 C 286.376 153.515,286.376 152.885,286.276 152.500 C 286.175 152.115,286.093 152.430,286.093 153.200 M87.917 158.137 C 81.676 162.096,76.952 166.574,75.006 170.374 C 72.892 174.504,77.020 183.175,90.367 202.639 C 94.137 208.137,108.728 226.817,112.061 230.413 C 112.577 230.970,114.164 232.770,115.588 234.413 C 117.011 236.056,118.600 237.810,119.120 238.311 L 120.065 239.222 139.207 239.111 L 158.348 239.000 159.620 237.800 C 161.708 235.830,162.400 233.699,162.400 229.241 L 162.400 225.348 161.100 224.690 C 142.738 215.390,127.098 198.426,119.839 179.933 C 118.261 175.911,118.809 176.229,112.990 175.962 C 101.877 175.451,94.488 169.683,92.754 160.164 C 92.517 158.864,92.206 157.322,92.062 156.737 L 91.800 155.674 87.917 158.137 M307.811 157.717 C 306.393 169.121,298.318 176.000,286.350 176.000 C 281.554 176.000,281.763 175.880,280.403 179.400 C 273.262 197.882,257.658 215.051,239.505 224.400 L 236.010 226.200 236.005 229.704 C 235.999 233.880,236.865 236.143,239.134 237.878 L 240.600 239.000 259.600 239.115 C 270.050 239.178,278.991 239.133,279.470 239.015 C 281.649 238.477,300.434 215.620,310.220 201.600 C 322.963 183.343,327.134 174.526,324.988 170.376 C 322.852 166.246,318.270 161.959,311.514 157.770 L 308.070 155.635 307.811 157.717 M114.093 157.600 C 114.093 158.370,114.175 158.685,114.276 158.300 C 114.376 157.915,114.376 157.285,114.276 156.900 C 114.175 156.515,114.093 156.830,114.093 157.600 M197.900 157.095 C 199.055 157.176,200.945 157.176,202.100 157.095 C 203.255 157.014,202.310 156.948,200.000 156.948 C 197.690 156.948,196.745 157.014,197.900 157.095 M195.449 158.615 C 195.312 158.973,195.215 159.566,195.234 159.933 C 195.253 160.300,195.427 160.069,195.621 159.420 C 195.998 158.158,195.865 157.533,195.449 158.615 M294.033 161.158 C 293.281 162.171,292.975 162.746,293.352 162.436 C 294.171 161.761,295.747 159.603,295.544 159.435 C 295.465 159.370,294.785 160.145,294.033 161.158 M105.967 161.745 C 106.500 162.401,108.000 163.393,108.000 163.089 C 108.000 163.013,107.415 162.522,106.700 161.999 C 105.896 161.410,105.616 161.313,105.967 161.745 M190.175 169.300 L 189.000 170.600 190.300 169.425 C 191.512 168.330,191.784 168.000,191.475 168.000 C 191.406 168.000,190.821 168.585,190.175 169.300 M147.400 200.800 C 149.150 202.560,150.671 204.000,150.781 204.000 C 150.891 204.000,149.550 202.560,147.800 200.800 C 146.050 199.040,144.529 197.600,144.419 197.600 C 144.309 197.600,145.650 199.040,147.400 200.800 M252.987 200.100 L 250.600 202.600 253.100 200.213 C 254.475 198.899,255.600 197.774,255.600 197.713 C 255.600 197.417,255.205 197.778,252.987 200.100 M198.300 222.295 C 199.455 222.376,201.345 222.376,202.500 222.295 C 203.655 222.214,202.710 222.148,200.400 222.148 C 198.090 222.148,197.145 222.214,198.300 222.295 M199.100 233.882 C 199.595 233.978,200.405 233.978,200.900 233.882 C 201.395 233.787,200.990 233.709,200.000 233.709 C 199.010 233.709,198.605 233.787,199.100 233.882 M144.700 250.700 C 175.115 250.757,224.885 250.757,255.300 250.700 C 285.715 250.643,260.830 250.597,200.000 250.597 C 139.170 250.597,114.285 250.643,144.700 250.700 M84.522 252.629 L 83.400 253.658 84.700 252.754 C 85.415 252.257,86.000 251.793,86.000 251.725 C 86.000 251.409,85.558 251.680,84.522 252.629 M314.000 251.711 C 314.000 251.787,314.585 252.278,315.300 252.801 C 316.104 253.390,316.384 253.487,316.033 253.055 C 315.500 252.399,314.000 251.407,314.000 251.711 M317.268 255.800 C 317.262 256.240,317.411 256.960,317.600 257.400 C 318.038 258.419,318.038 257.368,317.600 256.000 C 317.343 255.196,317.277 255.157,317.268 255.800 M82.229 256.629 C 82.081 257.215,82.038 257.772,82.132 257.866 C 82.227 257.960,82.424 257.558,82.571 256.971 C 82.719 256.385,82.762 255.828,82.668 255.734 C 82.573 255.640,82.376 256.042,82.229 256.629 M66.258 288.571 C 62.314 292.859,57.195 299.794,54.279 304.800 C 53.189 306.670,51.873 308.920,51.354 309.800 C 50.372 311.464,49.196 313.840,46.506 319.600 C 45.632 321.470,44.596 323.685,44.202 324.523 C 43.078 326.918,41.088 328.204,38.547 328.179 C 36.855 328.162,36.520 328.262,36.866 328.679 C 37.361 329.276,39.279 329.369,40.305 328.847 C 40.687 328.652,41.475 328.273,42.056 328.003 C 42.637 327.733,43.356 327.037,43.655 326.456 C 43.954 325.875,44.290 325.310,44.402 325.200 C 44.857 324.752,47.200 319.848,47.200 319.344 C 47.200 319.045,47.380 318.800,47.600 318.800 C 47.820 318.800,48.000 318.543,48.000 318.229 C 48.000 316.732,58.160 298.855,59.232 298.467 C 59.434 298.393,59.600 298.078,59.600 297.767 C 59.600 297.455,59.741 297.200,59.914 297.200 C 60.086 297.200,60.525 296.705,60.889 296.100 C 61.817 294.557,63.078 292.976,65.426 290.412 C 66.540 289.195,68.024 287.570,68.724 286.800 L 69.996 285.400 69.998 326.500 L 70.000 367.600 67.624 367.600 C 66.317 367.600,65.136 367.780,65.000 368.000 C 64.864 368.220,64.412 368.400,63.996 368.400 C 58.770 368.400,52.800 376.893,52.800 384.328 L 52.800 387.600 41.374 387.600 C 34.262 387.600,29.655 387.444,29.174 387.186 C 28.355 386.748,28.127 385.416,28.800 385.000 C 29.020 384.864,29.200 383.809,29.200 382.656 C 29.200 381.503,29.363 380.389,29.563 380.180 C 29.763 379.971,30.025 378.900,30.146 377.800 C 30.266 376.700,30.558 374.630,30.794 373.200 C 31.030 371.770,31.326 369.880,31.453 369.000 C 31.579 368.120,31.844 367.229,32.041 367.020 C 32.238 366.811,32.400 365.967,32.400 365.144 C 32.400 364.321,32.561 363.548,32.758 363.426 C 32.955 363.305,33.210 362.529,33.325 361.703 C 33.440 360.876,33.730 359.435,33.967 358.500 C 34.205 357.565,34.571 356.125,34.779 355.300 C 36.622 348.006,35.925 343.600,32.930 343.600 C 32.639 343.600,32.400 343.441,32.400 343.247 C 32.400 343.052,31.995 342.794,31.500 342.672 C 30.615 342.454,30.616 342.462,31.563 343.125 C 35.302 345.743,36.014 348.149,34.600 353.380 C 33.510 357.413,32.926 359.770,32.414 362.200 C 32.136 363.520,31.769 365.140,31.600 365.800 C 31.005 368.117,30.294 372.032,28.747 381.503 C 27.512 389.065,26.338 388.437,41.469 388.306 L 53.603 388.200 53.725 383.800 C 53.955 375.536,58.698 369.575,65.800 368.627 C 66.900 368.480,68.385 368.259,69.100 368.135 L 70.400 367.911 70.400 326.355 C 70.400 303.500,70.248 284.800,70.063 284.800 C 69.878 284.800,68.165 286.497,66.258 288.571 M329.900 285.026 C 329.735 285.195,329.600 303.933,329.600 326.667 L 329.600 368.000 330.900 368.014 C 340.529 368.118,347.892 376.546,346.635 386.023 C 346.297 388.569,345.703 388.463,359.487 388.318 C 373.024 388.176,372.393 388.405,371.653 383.918 C 371.389 382.313,370.989 379.830,370.765 378.400 C 370.541 376.970,370.202 375.080,370.012 374.200 C 369.821 373.320,369.456 371.520,369.200 370.200 C 368.596 367.082,368.218 365.341,367.245 361.200 C 365.850 355.262,365.284 353.104,363.993 348.800 C 363.301 346.490,362.588 344.060,362.410 343.400 C 361.798 341.137,360.507 337.394,358.455 331.935 C 357.325 328.929,356.400 326.362,356.400 326.230 C 356.400 323.476,343.534 300.378,338.754 294.550 C 338.009 293.642,336.827 292.202,336.127 291.350 C 333.281 287.885,330.182 284.737,329.900 285.026 M198.900 290.687 C 199.505 290.778,200.495 290.778,201.100 290.687 C 201.705 290.595,201.210 290.520,200.000 290.520 C 198.790 290.520,198.295 290.595,198.900 290.687 M213.000 294.257 C 215.037 296.064,215.787 296.591,215.002 295.663 C 214.566 295.148,213.847 294.541,213.404 294.314 C 212.962 294.087,212.780 294.062,213.000 294.257 M218.037 298.800 C 220.692 302.062,221.003 302.394,220.467 301.400 C 220.230 300.960,219.110 299.610,217.978 298.400 L 215.921 296.200 218.037 298.800 M223.256 308.400 C 223.256 308.730,223.411 309.360,223.600 309.800 C 223.817 310.304,223.944 310.378,223.944 310.000 C 223.944 309.670,223.789 309.040,223.600 308.600 C 223.383 308.096,223.256 308.022,223.256 308.400 M212.258 311.600 C 212.575 313.325,212.802 313.651,212.794 312.367 C 212.791 311.835,212.611 311.130,212.394 310.800 C 212.118 310.378,212.077 310.615,212.258 311.600 M187.293 312.800 C 187.293 313.570,187.375 313.885,187.476 313.500 C 187.576 313.115,187.576 312.485,187.476 312.100 C 187.375 311.715,187.293 312.030,187.293 312.800 M224.137 314.600 C 224.139 316.360,224.209 317.030,224.293 316.089 C 224.378 315.149,224.377 313.709,224.291 312.889 C 224.205 312.070,224.136 312.840,224.137 314.600 M175.720 314.800 C 175.720 316.010,175.795 316.505,175.887 315.900 C 175.978 315.295,175.978 314.305,175.887 313.700 C 175.795 313.095,175.720 313.590,175.720 314.800 M187.293 316.800 C 187.293 317.570,187.375 317.885,187.476 317.500 C 187.576 317.115,187.576 316.485,187.476 316.100 C 187.375 315.715,187.293 316.030,187.293 316.800 M176.056 319.200 C 176.056 319.530,176.211 320.160,176.400 320.600 C 176.617 321.104,176.744 321.178,176.744 320.800 C 176.744 320.470,176.589 319.840,176.400 319.400 C 176.183 318.896,176.056 318.822,176.056 319.200 M190.800 323.800 C 191.546 324.570,192.247 325.200,192.357 325.200 C 192.467 325.200,191.946 324.570,191.200 323.800 C 190.454 323.030,189.753 322.400,189.643 322.400 C 189.533 322.400,190.054 323.030,190.800 323.800 M208.778 323.900 L 207.400 325.400 208.900 324.022 C 209.725 323.263,210.400 322.588,210.400 322.522 C 210.400 322.216,210.062 322.504,208.778 323.900 M178.400 326.000 C 178.849 326.880,179.306 327.600,179.416 327.600 C 179.526 327.600,179.249 326.880,178.800 326.000 C 178.351 325.120,177.894 324.400,177.784 324.400 C 177.674 324.400,177.951 325.120,178.400 326.000 M181.429 330.438 C 182.073 331.229,182.681 331.808,182.779 331.725 C 182.878 331.642,182.351 330.995,181.609 330.287 L 180.258 329.000 181.429 330.438 M211.500 335.829 C 210.005 336.640,210.096 336.978,211.600 336.200 C 212.260 335.859,212.800 335.494,212.800 335.390 C 212.800 335.132,212.757 335.147,211.500 335.829 M192.800 337.958 C 193.130 338.161,194.120 338.432,195.000 338.561 C 196.133 338.726,196.308 338.697,195.600 338.462 C 193.764 337.852,192.157 337.563,192.800 337.958 M198.700 339.089 C 199.415 339.178,200.585 339.178,201.300 339.089 C 202.015 339.001,201.430 338.928,200.000 338.928 C 198.570 338.928,197.985 339.001,198.700 339.089 M331.158 365.700 C 331.446 367.398,331.402 367.600,330.740 367.600 C 330.070 367.600,330.004 367.250,330.044 363.900 C 330.090 359.965,330.222 360.178,331.158 365.700 M82.262 368.100 C 82.364 368.265,135.346 368.400,200.000 368.400 C 264.654 368.400,317.636 368.265,317.738 368.100 C 317.840 367.935,264.858 367.800,200.000 367.800 C 135.142 367.800,82.160 367.935,82.262 368.100 M67.738 379.906 C 67.484 380.068,126.892 380.200,199.756 380.200 C 325.909 380.200,332.287 380.234,333.318 380.909 C 333.913 381.299,334.400 381.522,334.400 381.403 C 334.400 381.285,333.815 380.832,333.100 380.396 C 331.756 379.576,69.018 379.092,67.738 379.906 M65.048 383.235 C 64.752 384.595,65.547 387.600,66.203 387.600 C 66.337 387.600,66.302 387.375,66.125 387.100 C 65.948 386.825,65.704 385.520,65.582 384.200 C 65.369 381.898,65.348 381.859,65.048 383.235 M334.425 384.071 C 334.403 386.033,334.256 386.455,333.345 387.172 L 332.289 388.002 199.583 387.901 C 126.594 387.846,66.960 387.935,67.062 388.100 C 67.164 388.265,126.970 388.400,199.965 388.400 L 332.683 388.400 333.715 387.443 C 334.912 386.335,335.425 384.237,334.850 382.800 C 334.511 381.951,334.447 382.144,334.425 384.071 " stroke="none" fill="#145373" fill-rule="evenodd"></path><path id="path3" d="M188.200 0.272 C 187.100 0.369,186.029 0.617,185.820 0.824 C 185.611 1.031,184.857 1.200,184.144 1.200 C 183.431 1.200,182.736 1.380,182.600 1.600 C 182.464 1.820,181.823 2.000,181.176 2.000 C 180.529 2.000,180.000 2.180,180.000 2.400 C 180.000 2.620,179.460 2.800,178.800 2.800 C 178.140 2.800,177.600 2.980,177.600 3.200 C 177.600 3.420,177.150 3.600,176.600 3.600 C 176.050 3.600,175.600 3.780,175.600 4.000 C 175.600 4.220,175.240 4.400,174.800 4.400 C 174.360 4.400,174.000 4.580,174.000 4.800 C 174.000 5.020,173.460 5.200,172.800 5.200 C 172.140 5.200,171.600 5.380,171.600 5.600 C 171.600 5.820,171.240 6.000,170.800 6.000 C 170.360 6.000,170.000 6.180,170.000 6.400 C 170.000 6.620,169.640 6.800,169.200 6.800 C 168.760 6.800,168.400 6.980,168.400 7.200 C 168.400 7.420,168.040 7.600,167.600 7.600 C 167.160 7.600,166.800 7.780,166.800 8.000 C 166.800 8.220,166.545 8.400,166.232 8.400 C 165.565 8.400,163.060 9.665,162.867 10.100 C 162.793 10.265,162.556 10.400,162.339 10.400 C 162.122 10.400,161.159 10.940,160.200 11.600 C 159.241 12.260,158.303 12.800,158.116 12.800 C 157.929 12.800,157.517 13.160,157.200 13.600 C 156.883 14.040,156.375 14.400,156.072 14.400 C 155.769 14.400,155.017 14.940,154.400 15.600 C 153.783 16.260,153.080 16.800,152.836 16.800 C 152.592 16.800,151.828 17.340,151.137 18.000 C 150.446 18.660,149.714 19.200,149.509 19.200 C 149.305 19.200,148.476 19.881,147.669 20.713 C 146.861 21.545,145.570 22.669,144.800 23.211 C 143.013 24.468,128.400 39.095,128.400 39.627 C 128.400 39.847,127.815 40.623,127.100 41.352 C 125.471 43.013,124.000 44.745,124.000 45.003 C 124.000 45.111,123.280 45.941,122.400 46.848 C 121.520 47.755,120.800 48.673,120.800 48.888 C 120.800 49.103,120.260 49.783,119.600 50.400 C 118.940 51.017,118.400 51.737,118.400 52.000 C 118.400 52.263,117.860 52.983,117.200 53.600 C 116.540 54.217,116.000 54.927,116.000 55.179 C 116.000 55.430,115.563 56.073,115.029 56.607 C 114.495 57.141,113.736 58.123,113.343 58.789 C 112.949 59.455,112.486 60.000,112.314 60.000 C 112.141 60.000,112.000 60.270,112.000 60.600 C 112.000 60.930,111.850 61.200,111.668 61.200 C 111.485 61.200,111.080 61.695,110.768 62.300 C 110.455 62.905,109.878 63.756,109.485 64.192 C 109.091 64.628,108.666 65.393,108.541 65.892 C 108.416 66.391,108.153 66.800,107.957 66.800 C 107.760 66.800,107.600 67.036,107.600 67.325 C 107.600 67.613,107.240 68.236,106.800 68.708 C 106.360 69.180,106.000 69.804,106.000 70.095 C 106.000 70.386,105.640 70.883,105.200 71.200 C 104.760 71.517,104.400 72.057,104.400 72.400 C 104.400 72.743,104.040 73.283,103.600 73.600 C 103.160 73.917,102.800 74.414,102.800 74.705 C 102.800 74.996,102.440 75.620,102.000 76.092 C 101.560 76.564,100.976 77.456,100.703 78.075 C 100.429 78.694,100.069 79.200,99.902 79.200 C 99.736 79.200,99.600 79.478,99.600 79.817 C 99.600 80.156,99.240 80.820,98.800 81.292 C 98.360 81.764,98.000 82.387,98.000 82.675 C 98.000 82.964,97.820 83.200,97.600 83.200 C 97.380 83.200,97.200 83.560,97.200 84.000 C 97.200 84.440,97.020 84.800,96.800 84.800 C 96.580 84.800,96.400 85.036,96.400 85.325 C 96.400 85.613,96.040 86.236,95.600 86.708 C 95.160 87.180,94.800 87.844,94.800 88.183 C 94.800 88.522,94.620 88.800,94.400 88.800 C 94.180 88.800,94.000 89.160,94.000 89.600 C 94.000 90.040,93.838 90.400,93.640 90.400 C 93.441 90.400,92.946 91.209,92.540 92.199 C 92.133 93.188,91.665 93.998,91.500 93.999 C 91.335 93.999,91.200 94.360,91.200 94.800 C 91.200 95.240,91.020 95.600,90.800 95.600 C 90.580 95.600,90.400 95.960,90.400 96.400 C 90.400 96.840,90.220 97.200,90.000 97.200 C 89.780 97.200,89.600 97.560,89.600 98.000 C 89.600 98.440,89.420 98.800,89.200 98.800 C 88.980 98.800,88.800 99.160,88.800 99.600 C 88.800 100.040,88.620 100.400,88.400 100.400 C 88.180 100.400,88.000 100.760,88.000 101.200 C 88.000 101.640,87.820 102.000,87.600 102.000 C 87.380 102.000,87.200 102.360,87.200 102.800 C 87.200 103.240,87.041 103.600,86.847 103.600 C 86.652 103.600,86.390 103.915,86.264 104.300 C 86.138 104.685,85.577 105.770,85.018 106.711 C 84.458 107.652,84.000 108.687,84.000 109.011 C 84.000 109.335,83.820 109.600,83.600 109.600 C 83.380 109.600,83.200 109.960,83.200 110.400 C 83.200 110.840,83.020 111.200,82.800 111.200 C 82.580 111.200,82.400 111.560,82.400 112.000 C 82.400 112.440,82.220 112.800,82.000 112.800 C 81.780 112.800,81.600 113.160,81.600 113.600 C 81.600 114.040,81.420 114.400,81.200 114.400 C 80.980 114.400,80.800 114.760,80.800 115.200 C 80.800 115.640,80.620 116.000,80.400 116.000 C 80.180 116.000,80.000 116.360,80.000 116.800 C 80.000 117.240,79.820 117.600,79.600 117.600 C 79.380 117.600,79.200 117.836,79.200 118.125 C 79.200 118.414,78.840 119.395,78.400 120.306 C 77.960 121.216,77.600 122.240,77.600 122.581 C 77.600 122.921,77.420 123.200,77.200 123.200 C 76.980 123.200,76.800 123.436,76.800 123.725 C 76.800 124.014,76.435 125.005,75.990 125.927 C 75.544 126.850,75.071 128.144,74.940 128.802 C 74.808 129.461,74.543 130.000,74.350 130.000 C 74.158 130.000,74.000 130.540,74.000 131.200 C 74.000 131.860,73.820 132.400,73.600 132.400 C 73.380 132.400,73.200 132.760,73.200 133.200 C 73.200 133.640,73.020 134.000,72.800 134.000 C 72.580 134.000,72.400 134.349,72.400 134.776 C 72.400 135.203,72.220 135.664,72.000 135.800 C 71.780 135.936,71.600 136.487,71.600 137.024 C 71.600 137.561,71.420 138.000,71.200 138.000 C 70.980 138.000,70.800 138.540,70.800 139.200 C 70.800 139.860,70.620 140.400,70.400 140.400 C 70.180 140.400,70.000 140.850,70.000 141.400 C 70.000 141.950,69.820 142.400,69.600 142.400 C 69.380 142.400,69.200 142.749,69.200 143.176 C 69.200 143.603,69.020 144.064,68.800 144.200 C 68.580 144.336,68.400 144.887,68.400 145.424 C 68.400 145.961,68.220 146.400,68.000 146.400 C 67.780 146.400,67.600 146.940,67.600 147.600 C 67.600 148.260,67.420 148.800,67.200 148.800 C 66.980 148.800,66.800 149.340,66.800 150.000 C 66.800 150.660,66.620 151.200,66.400 151.200 C 66.180 151.200,66.000 151.729,66.000 152.376 C 66.000 153.023,65.820 153.664,65.600 153.800 C 65.380 153.936,65.200 154.667,65.200 155.424 C 65.200 156.181,65.020 156.800,64.800 156.800 C 64.580 156.800,64.400 157.340,64.400 158.000 C 64.400 158.660,64.220 159.200,64.000 159.200 C 63.780 159.200,63.600 159.909,63.600 160.776 C 63.600 161.643,63.420 162.464,63.200 162.600 C 62.980 162.736,62.800 163.456,62.800 164.200 C 62.800 164.944,62.620 165.664,62.400 165.800 C 62.180 165.936,62.000 167.351,62.000 168.944 C 62.000 170.696,61.806 172.034,61.510 172.330 C 61.123 172.717,61.123 172.985,61.510 173.605 C 61.780 174.036,62.000 175.292,62.000 176.395 C 62.000 177.498,62.180 178.400,62.400 178.400 C 62.620 178.400,62.800 178.940,62.800 179.600 C 62.800 180.260,62.980 180.800,63.200 180.800 C 63.420 180.800,63.600 181.340,63.600 182.000 C 63.600 182.660,63.780 183.200,64.000 183.200 C 64.220 183.200,64.400 183.560,64.400 184.000 C 64.400 184.440,64.580 184.800,64.800 184.800 C 65.020 184.800,65.200 185.034,65.200 185.320 C 65.200 186.056,66.141 187.993,66.500 187.997 C 66.665 187.999,66.800 188.360,66.800 188.800 C 66.800 189.240,66.980 189.600,67.200 189.600 C 67.420 189.600,67.600 189.960,67.600 190.400 C 67.600 190.840,67.780 191.200,68.000 191.200 C 68.220 191.200,68.400 191.470,68.400 191.800 C 68.400 192.130,68.580 192.400,68.800 192.400 C 69.020 192.400,69.200 192.760,69.200 193.200 C 69.200 193.640,69.380 194.000,69.600 194.000 C 69.820 194.000,70.000 194.320,70.000 194.712 C 70.000 195.103,70.360 195.683,70.800 196.000 C 71.240 196.317,71.600 196.897,71.600 197.288 C 71.600 197.680,71.780 198.000,72.000 198.000 C 72.220 198.000,72.400 198.236,72.400 198.525 C 72.400 198.813,72.760 199.436,73.200 199.908 C 73.640 200.380,74.000 201.044,74.000 201.383 C 74.000 201.722,74.150 202.000,74.332 202.000 C 74.515 202.000,74.920 202.494,75.232 203.098 C 76.020 204.623,79.308 209.371,79.688 209.533 C 79.859 209.607,80.000 209.895,80.000 210.174 C 80.000 210.453,80.540 211.246,81.200 211.937 C 81.860 212.628,82.400 213.392,82.400 213.636 C 82.400 213.880,82.940 214.583,83.600 215.200 C 84.260 215.817,84.800 216.520,84.800 216.764 C 84.800 217.008,85.340 217.772,86.000 218.463 C 86.660 219.154,87.200 219.878,87.200 220.073 C 87.200 220.267,87.785 221.029,88.500 221.765 C 89.215 222.501,90.296 223.710,90.902 224.451 C 91.508 225.193,92.363 226.233,92.802 226.761 C 93.241 227.290,93.600 227.869,93.600 228.048 C 93.600 228.227,94.230 229.003,95.000 229.773 C 95.770 230.543,96.400 231.327,96.400 231.516 C 96.400 231.704,97.300 232.822,98.400 234.000 C 99.500 235.178,100.400 236.380,100.400 236.671 C 100.400 236.962,100.580 237.200,100.800 237.200 C 101.020 237.200,101.200 237.380,101.200 237.600 C 101.200 237.850,98.808 238.000,94.824 238.000 C 91.004 238.000,88.348 238.160,88.200 238.400 C 88.064 238.620,86.973 238.800,85.776 238.800 C 84.579 238.800,83.600 238.980,83.600 239.200 C 83.600 239.420,83.060 239.600,82.400 239.600 C 81.740 239.600,81.200 239.780,81.200 240.000 C 81.200 240.220,80.930 240.400,80.600 240.400 C 80.270 240.400,80.000 240.580,80.000 240.800 C 80.000 241.020,79.640 241.200,79.200 241.200 C 78.760 241.200,78.400 241.368,78.400 241.573 C 78.400 241.778,78.049 242.058,77.619 242.194 C 76.653 242.500,74.000 245.109,74.000 245.752 C 74.000 246.011,73.640 246.483,73.200 246.800 C 72.760 247.117,72.400 247.697,72.400 248.088 C 72.400 248.480,72.220 248.800,72.000 248.800 C 71.780 248.800,71.600 249.160,71.600 249.600 C 71.600 250.040,71.420 250.400,71.200 250.400 C 70.980 250.400,70.800 250.940,70.800 251.600 C 70.800 252.260,70.620 252.800,70.400 252.800 C 70.147 252.800,70.000 255.644,70.000 260.532 L 70.000 268.265 68.900 268.832 C 68.295 269.145,67.139 270.075,66.331 270.900 C 65.524 271.725,64.652 272.400,64.395 272.400 C 63.825 272.400,56.000 280.269,56.000 280.843 C 56.000 281.068,55.100 282.129,54.000 283.200 C 52.900 284.271,52.000 285.358,52.000 285.614 C 52.000 285.870,51.460 286.583,50.800 287.200 C 50.140 287.817,49.600 288.485,49.600 288.685 C 49.600 288.885,49.278 289.398,48.883 289.825 C 48.489 290.251,47.556 291.500,46.810 292.600 C 46.063 293.700,45.351 294.690,45.226 294.800 C 44.909 295.081,43.764 297.076,42.701 299.200 C 42.205 300.190,41.665 301.060,41.500 301.133 C 41.335 301.207,41.200 301.612,41.200 302.033 C 41.200 302.455,41.020 302.800,40.800 302.800 C 40.580 302.800,40.400 303.160,40.400 303.600 C 40.400 304.040,40.220 304.400,40.000 304.400 C 39.780 304.400,39.600 304.760,39.600 305.200 C 39.600 305.640,39.420 306.000,39.200 306.000 C 38.980 306.000,38.800 306.360,38.800 306.800 C 38.800 307.240,38.620 307.600,38.400 307.600 C 38.180 307.600,38.000 307.870,38.000 308.200 C 38.000 308.530,37.820 308.800,37.600 308.800 C 37.380 308.800,37.200 309.160,37.200 309.600 C 37.200 310.040,37.020 310.400,36.800 310.400 C 36.580 310.400,36.400 310.760,36.400 311.200 C 36.400 311.640,36.220 312.000,36.000 312.000 C 35.780 312.000,35.600 312.360,35.600 312.800 C 35.600 313.240,35.420 313.600,35.200 313.600 C 34.980 313.600,34.800 313.960,34.800 314.400 C 34.800 314.840,34.620 315.200,34.400 315.200 C 34.180 315.200,34.000 315.549,34.000 315.976 C 34.000 316.403,33.820 316.864,33.600 317.000 C 33.380 317.136,33.200 317.687,33.200 318.224 C 33.200 318.761,33.020 319.200,32.800 319.200 C 32.580 319.200,32.400 319.740,32.400 320.400 C 32.400 321.060,32.220 321.600,32.000 321.600 C 31.780 321.600,31.600 322.050,31.600 322.600 C 31.600 323.150,31.780 323.600,32.000 323.600 C 32.220 323.600,32.400 324.140,32.400 324.800 C 32.400 325.460,32.580 326.000,32.800 326.000 C 33.020 326.000,33.200 326.287,33.200 326.637 C 33.200 326.988,33.560 327.369,34.000 327.484 C 34.440 327.599,34.800 327.839,34.800 328.017 C 34.800 328.195,36.128 328.302,37.751 328.255 C 41.194 328.155,42.982 327.121,44.202 324.523 C 44.596 323.685,45.632 321.470,46.506 319.600 C 49.196 313.840,50.372 311.464,51.354 309.800 C 51.873 308.920,53.189 306.670,54.279 304.800 C 58.162 298.135,68.686 284.800,70.063 284.800 C 70.248 284.800,70.400 303.500,70.400 326.355 L 70.400 367.911 69.100 368.135 C 68.385 368.259,66.900 368.480,65.800 368.627 C 58.698 369.575,53.955 375.536,53.725 383.800 L 53.603 388.200 41.469 388.306 C 26.338 388.437,27.512 389.065,28.747 381.503 C 30.294 372.032,31.005 368.117,31.600 365.800 C 31.769 365.140,32.136 363.520,32.414 362.200 C 32.930 359.747,33.466 357.586,34.574 353.480 C 36.337 346.948,33.821 342.400,28.444 342.400 C 26.442 342.400,24.000 344.262,24.000 345.789 C 24.000 346.125,23.820 346.400,23.600 346.400 C 23.380 346.400,23.200 346.940,23.200 347.600 C 23.200 348.260,23.020 348.800,22.800 348.800 C 22.580 348.800,22.400 349.520,22.400 350.400 C 22.400 351.280,22.220 352.000,22.000 352.000 C 21.780 352.000,21.600 352.720,21.600 353.600 C 21.600 354.480,21.420 355.200,21.200 355.200 C 20.980 355.200,20.800 355.920,20.800 356.800 C 20.800 357.680,20.620 358.400,20.400 358.400 C 20.180 358.400,20.000 359.210,20.000 360.200 C 20.000 361.190,19.820 362.000,19.600 362.000 C 19.380 362.000,19.200 362.709,19.200 363.576 C 19.200 364.443,19.020 365.264,18.800 365.400 C 18.580 365.536,18.400 366.526,18.400 367.600 C 18.400 368.674,18.220 369.664,18.000 369.800 C 17.780 369.936,17.600 371.016,17.600 372.200 C 17.600 373.384,17.420 374.464,17.200 374.600 C 16.980 374.736,16.800 375.827,16.800 377.024 C 16.800 378.221,16.620 379.200,16.400 379.200 C 16.180 379.200,16.000 380.179,16.000 381.376 C 16.000 382.573,15.820 383.664,15.600 383.800 C 15.079 384.122,15.079 388.278,15.600 388.600 C 15.820 388.736,16.000 389.467,16.000 390.224 C 16.000 390.981,16.180 391.600,16.400 391.600 C 16.620 391.600,16.800 391.960,16.800 392.400 C 16.800 392.840,16.980 393.200,17.200 393.200 C 17.420 393.200,17.600 393.474,17.600 393.809 C 17.600 394.582,21.790 398.800,22.558 398.800 C 22.874 398.800,23.208 399.025,23.300 399.300 C 23.433 399.699,59.129 399.800,200.000 399.800 C 340.871 399.800,376.567 399.699,376.700 399.300 C 376.792 399.025,377.126 398.800,377.442 398.800 C 378.210 398.800,382.400 394.582,382.400 393.809 C 382.400 393.474,382.580 393.200,382.800 393.200 C 383.020 393.200,383.200 392.840,383.200 392.400 C 383.200 391.960,383.380 391.600,383.600 391.600 C 383.820 391.600,384.000 390.981,384.000 390.224 C 384.000 389.467,384.180 388.736,384.400 388.600 C 384.921 388.278,384.921 384.122,384.400 383.800 C 384.180 383.664,384.000 382.494,384.000 381.200 C 384.000 379.906,383.820 378.736,383.600 378.600 C 383.380 378.464,383.200 377.373,383.200 376.176 C 383.200 374.979,383.020 374.000,382.800 374.000 C 382.580 374.000,382.400 373.100,382.400 372.000 C 382.400 370.900,382.220 370.000,382.000 370.000 C 381.780 370.000,381.600 369.100,381.600 368.000 C 381.600 366.900,381.420 366.000,381.200 366.000 C 380.980 366.000,380.800 365.100,380.800 364.000 C 380.800 362.900,380.620 362.000,380.400 362.000 C 380.180 362.000,380.000 361.190,380.000 360.200 C 380.000 359.210,379.820 358.400,379.600 358.400 C 379.380 358.400,379.200 357.680,379.200 356.800 C 379.200 355.920,379.020 355.200,378.800 355.200 C 378.580 355.200,378.400 354.480,378.400 353.600 C 378.400 352.720,378.220 352.000,378.000 352.000 C 377.780 352.000,377.600 351.381,377.600 350.624 C 377.600 349.867,377.420 349.136,377.200 349.000 C 376.980 348.864,376.800 348.133,376.800 347.376 C 376.800 346.619,376.620 346.000,376.400 346.000 C 376.180 346.000,376.000 345.370,376.000 344.600 C 376.000 343.830,375.833 343.200,375.629 343.200 C 375.425 343.200,375.134 342.210,374.983 341.000 C 374.832 339.790,374.549 338.800,374.354 338.800 C 374.159 338.800,374.000 338.260,374.000 337.600 C 374.000 336.940,373.820 336.400,373.600 336.400 C 373.380 336.400,373.200 335.860,373.200 335.200 C 373.200 334.540,373.020 334.000,372.800 334.000 C 372.580 334.000,372.400 333.460,372.400 332.800 C 372.400 332.140,372.220 331.600,372.000 331.600 C 371.780 331.600,371.600 331.060,371.600 330.400 C 371.600 329.740,371.420 329.200,371.200 329.200 C 370.980 329.200,370.800 328.660,370.800 328.000 C 370.800 327.340,370.620 326.800,370.400 326.800 C 370.180 326.800,370.000 326.350,370.000 325.800 C 370.000 325.250,369.820 324.800,369.600 324.800 C 369.380 324.800,369.200 324.440,369.200 324.000 C 369.200 323.560,369.020 323.200,368.800 323.200 C 368.580 323.200,368.400 322.660,368.400 322.000 C 368.400 321.340,368.220 320.800,368.000 320.800 C 367.780 320.800,367.600 320.440,367.600 320.000 C 367.600 319.560,367.420 319.200,367.200 319.200 C 366.980 319.200,366.800 318.660,366.800 318.000 C 366.800 317.340,366.620 316.800,366.400 316.800 C 366.180 316.800,366.000 316.440,366.000 316.000 C 366.000 315.560,365.820 315.200,365.600 315.200 C 365.380 315.200,365.200 314.840,365.200 314.400 C 365.200 313.960,365.020 313.600,364.800 313.600 C 364.580 313.600,364.400 313.240,364.400 312.800 C 364.400 312.360,364.220 312.000,364.000 312.000 C 363.780 312.000,363.600 311.640,363.600 311.200 C 363.600 310.760,363.420 310.400,363.200 310.400 C 362.980 310.400,362.800 310.032,362.800 309.583 C 362.800 309.134,362.440 308.380,362.000 307.908 C 361.560 307.436,361.200 306.813,361.200 306.525 C 361.200 306.236,361.020 306.000,360.800 306.000 C 360.580 306.000,360.400 305.640,360.400 305.200 C 360.400 304.760,360.220 304.400,360.000 304.400 C 359.780 304.400,359.600 304.040,359.600 303.600 C 359.600 303.160,359.420 302.800,359.200 302.800 C 358.980 302.800,358.800 302.465,358.800 302.056 C 358.800 301.647,358.395 300.702,357.900 299.956 C 357.405 299.210,356.745 298.105,356.432 297.500 C 356.120 296.895,355.715 296.400,355.532 296.400 C 355.350 296.400,355.200 296.207,355.200 295.972 C 355.200 295.737,354.660 294.759,354.000 293.800 C 353.340 292.841,352.800 291.936,352.800 291.788 C 352.800 291.641,352.260 291.017,351.600 290.400 C 350.940 289.783,350.400 289.080,350.400 288.836 C 350.400 288.592,349.860 287.828,349.200 287.137 C 348.540 286.446,348.000 285.716,348.000 285.515 C 348.000 285.313,347.100 284.271,346.000 283.200 C 344.900 282.129,344.000 281.060,344.000 280.826 C 344.000 280.240,336.191 272.400,335.608 272.400 C 335.349 272.400,334.476 271.725,333.669 270.900 C 332.861 270.075,331.705 269.145,331.100 268.832 L 330.000 268.265 330.000 260.532 C 330.000 255.644,329.853 252.800,329.600 252.800 C 329.380 252.800,329.200 252.260,329.200 251.600 C 329.200 250.940,329.020 250.400,328.800 250.400 C 328.580 250.400,328.400 250.040,328.400 249.600 C 328.400 249.160,328.220 248.800,328.000 248.800 C 327.780 248.800,327.600 248.480,327.600 248.088 C 327.600 247.697,327.240 247.117,326.800 246.800 C 326.360 246.483,326.000 245.993,326.000 245.711 C 326.000 245.032,322.856 242.000,322.152 242.000 C 321.848 242.000,321.600 241.820,321.600 241.600 C 321.600 241.380,321.240 241.200,320.800 241.200 C 320.360 241.200,320.000 241.020,320.000 240.800 C 320.000 240.580,319.730 240.400,319.400 240.400 C 319.070 240.400,318.800 240.220,318.800 240.000 C 318.800 239.780,318.260 239.600,317.600 239.600 C 316.940 239.600,316.400 239.420,316.400 239.200 C 316.400 238.980,315.446 238.800,314.280 238.800 C 313.114 238.800,311.985 238.625,311.770 238.410 C 311.556 238.196,308.357 237.971,304.662 237.910 L 297.944 237.800 299.972 235.629 C 301.087 234.435,302.000 233.293,302.000 233.090 C 302.000 232.887,302.502 232.244,303.115 231.660 C 303.729 231.077,304.673 229.970,305.212 229.200 C 305.752 228.430,306.780 227.177,307.497 226.417 C 308.214 225.656,308.800 224.891,308.800 224.717 C 308.800 224.543,309.520 223.659,310.400 222.752 C 311.280 221.845,312.000 220.927,312.000 220.712 C 312.000 220.497,312.540 219.817,313.200 219.200 C 313.860 218.583,314.400 217.863,314.400 217.600 C 314.400 217.337,314.940 216.617,315.600 216.000 C 316.260 215.383,316.800 214.663,316.800 214.400 C 316.800 214.137,317.340 213.417,318.000 212.800 C 318.660 212.183,319.200 211.431,319.200 211.128 C 319.200 210.825,319.560 210.317,320.000 210.000 C 320.440 209.683,320.800 209.221,320.800 208.974 C 320.800 208.726,321.160 208.198,321.600 207.800 C 322.040 207.402,322.400 206.925,322.400 206.741 C 322.400 206.557,323.009 205.610,323.752 204.635 C 324.496 203.661,325.350 202.309,325.650 201.632 C 325.950 200.954,326.331 200.400,326.498 200.400 C 326.664 200.400,326.800 200.080,326.800 199.688 C 326.800 199.297,327.160 198.717,327.600 198.400 C 328.040 198.083,328.400 197.503,328.400 197.112 C 328.400 196.720,328.580 196.400,328.800 196.400 C 329.020 196.400,329.200 196.080,329.200 195.688 C 329.200 195.297,329.560 194.717,330.000 194.400 C 330.440 194.083,330.800 193.503,330.800 193.112 C 330.800 192.720,330.946 192.400,331.125 192.400 C 331.304 192.400,331.698 191.770,332.000 191.000 C 332.302 190.230,332.696 189.600,332.875 189.600 C 333.054 189.600,333.200 189.240,333.200 188.800 C 333.200 188.360,333.380 188.000,333.600 188.000 C 333.820 188.000,334.000 187.640,334.000 187.200 C 334.000 186.760,334.180 186.400,334.400 186.400 C 334.620 186.400,334.800 186.040,334.800 185.600 C 334.800 185.160,334.980 184.800,335.200 184.800 C 335.420 184.800,335.600 184.451,335.600 184.024 C 335.600 183.597,335.780 183.136,336.000 183.000 C 336.220 182.864,336.400 182.313,336.400 181.776 C 336.400 181.239,336.580 180.800,336.800 180.800 C 337.020 180.800,337.200 180.260,337.200 179.600 C 337.200 178.940,337.380 178.400,337.600 178.400 C 337.820 178.400,338.000 177.446,338.000 176.280 C 338.000 175.114,338.220 173.940,338.490 173.670 C 338.877 173.283,338.877 173.015,338.490 172.395 C 338.220 171.964,338.000 170.348,338.000 168.805 C 338.000 167.202,337.829 166.000,337.600 166.000 C 337.380 166.000,337.200 165.291,337.200 164.424 C 337.200 163.557,337.020 162.736,336.800 162.600 C 336.580 162.464,336.400 161.643,336.400 160.776 C 336.400 159.909,336.220 159.200,336.000 159.200 C 335.780 159.200,335.600 158.660,335.600 158.000 C 335.600 157.340,335.440 156.800,335.244 156.800 C 335.048 156.800,334.778 156.170,334.644 155.400 C 334.510 154.630,334.290 153.370,334.156 152.600 C 334.022 151.830,333.752 151.200,333.556 151.200 C 333.360 151.200,333.200 150.660,333.200 150.000 C 333.200 149.340,333.020 148.800,332.800 148.800 C 332.580 148.800,332.400 148.260,332.400 147.600 C 332.400 146.940,332.220 146.400,332.000 146.400 C 331.780 146.400,331.600 145.950,331.600 145.400 C 331.600 144.850,331.420 144.400,331.200 144.400 C 330.980 144.400,330.800 144.051,330.800 143.624 C 330.800 143.197,330.620 142.736,330.400 142.600 C 330.180 142.464,330.000 141.913,330.000 141.376 C 330.000 140.839,329.820 140.400,329.600 140.400 C 329.380 140.400,329.200 139.860,329.200 139.200 C 329.200 138.540,329.020 138.000,328.800 138.000 C 328.580 138.000,328.400 137.640,328.400 137.200 C 328.400 136.760,328.220 136.400,328.000 136.400 C 327.780 136.400,327.600 135.860,327.600 135.200 C 327.600 134.540,327.420 134.000,327.200 134.000 C 326.980 134.000,326.800 133.640,326.800 133.200 C 326.800 132.760,326.620 132.400,326.400 132.400 C 326.180 132.400,326.000 131.961,326.000 131.424 C 326.000 130.887,325.820 130.336,325.600 130.200 C 325.380 130.064,325.200 129.676,325.200 129.337 C 325.200 128.760,324.397 126.680,323.566 125.105 C 323.365 124.723,323.200 124.138,323.200 123.805 C 323.200 123.472,323.020 123.200,322.800 123.200 C 322.580 123.200,322.400 122.840,322.400 122.400 C 322.400 121.960,322.220 121.600,322.000 121.600 C 321.780 121.600,321.600 121.328,321.600 120.995 C 321.600 120.407,321.433 119.982,320.462 118.105 C 320.208 117.613,320.000 116.938,320.000 116.605 C 320.000 116.272,319.820 116.000,319.600 116.000 C 319.380 116.000,319.200 115.640,319.200 115.200 C 319.200 114.760,319.020 114.400,318.800 114.400 C 318.580 114.400,318.400 114.040,318.400 113.600 C 318.400 113.160,318.220 112.800,318.000 112.800 C 317.780 112.800,317.600 112.440,317.600 112.000 C 317.600 111.560,317.420 111.200,317.200 111.200 C 316.980 111.200,316.800 110.840,316.800 110.400 C 316.800 109.960,316.654 109.600,316.475 109.600 C 316.296 109.600,315.902 108.970,315.600 108.200 C 315.298 107.430,314.904 106.800,314.725 106.800 C 314.546 106.800,314.400 106.440,314.400 106.000 C 314.400 105.560,314.220 105.200,314.000 105.200 C 313.780 105.200,313.600 104.840,313.600 104.400 C 313.600 103.960,313.420 103.600,313.200 103.600 C 312.980 103.600,312.800 103.240,312.800 102.800 C 312.800 102.360,312.620 102.000,312.400 102.000 C 312.180 102.000,312.000 101.640,312.000 101.200 C 312.000 100.760,311.820 100.400,311.600 100.400 C 311.380 100.400,311.200 100.040,311.200 99.600 C 311.200 99.160,311.020 98.800,310.800 98.800 C 310.580 98.800,310.400 98.440,310.400 98.000 C 310.400 97.560,310.220 97.200,310.000 97.200 C 309.780 97.200,309.600 96.840,309.600 96.400 C 309.600 95.960,309.420 95.600,309.200 95.600 C 308.980 95.600,308.800 95.326,308.800 94.992 C 308.800 94.658,308.350 93.671,307.800 92.800 C 307.250 91.929,306.800 91.032,306.800 90.808 C 306.800 90.584,306.620 90.400,306.400 90.400 C 306.180 90.400,306.000 90.040,306.000 89.600 C 306.000 89.160,305.820 88.800,305.600 88.800 C 305.380 88.800,305.200 88.522,305.200 88.183 C 305.200 87.844,304.840 87.180,304.400 86.708 C 303.960 86.236,303.600 85.613,303.600 85.325 C 303.600 85.036,303.420 84.800,303.200 84.800 C 302.980 84.800,302.800 84.440,302.800 84.000 C 302.800 83.560,302.620 83.200,302.400 83.200 C 302.180 83.200,302.000 82.840,302.000 82.400 C 302.000 81.960,301.820 81.600,301.600 81.600 C 301.380 81.600,301.200 81.330,301.200 81.000 C 301.200 80.670,301.020 80.400,300.800 80.400 C 300.580 80.400,300.400 80.212,300.400 79.982 C 300.400 79.340,298.514 77.600,297.818 77.600 C 297.478 77.600,297.200 77.420,297.200 77.200 C 297.200 76.155,292.224 76.768,291.500 77.903 C 291.114 78.506,290.333 79.630,289.764 80.400 C 288.224 82.482,288.535 84.881,290.880 89.000 C 294.113 94.679,294.499 95.365,295.717 97.600 C 296.376 98.810,297.062 99.989,297.240 100.220 C 297.419 100.451,299.696 104.861,302.299 110.020 C 306.402 118.150,308.588 122.784,312.101 130.800 C 312.535 131.790,313.319 133.550,313.845 134.712 C 314.370 135.873,314.800 137.001,314.800 137.217 C 314.800 137.434,314.959 137.923,315.153 138.305 C 316.283 140.526,318.910 147.623,318.686 147.848 C 318.567 147.967,316.609 146.994,314.335 145.687 C 310.881 143.701,305.107 140.800,304.608 140.800 C 304.533 140.800,303.150 140.182,301.536 139.427 C 299.921 138.672,297.700 137.763,296.600 137.407 C 295.500 137.051,294.240 136.598,293.800 136.400 C 293.360 136.202,292.190 135.778,291.200 135.458 C 290.210 135.138,288.680 134.610,287.800 134.286 C 286.920 133.961,285.480 133.496,284.600 133.251 C 283.720 133.006,280.750 132.168,278.000 131.389 C 268.713 128.758,251.478 125.354,240.600 124.001 C 232.343 122.975,230.735 122.809,225.200 122.409 C 202.745 120.786,196.809 120.786,174.800 122.413 C 171.610 122.649,167.650 123.011,166.000 123.218 C 164.350 123.425,160.731 123.870,157.958 124.208 C 152.239 124.904,139.580 127.137,134.200 128.399 C 125.736 130.383,122.068 131.309,120.000 131.984 C 118.790 132.379,116.450 133.097,114.800 133.578 C 111.728 134.476,110.012 135.036,108.600 135.601 C 108.160 135.778,106.720 136.314,105.400 136.793 C 104.080 137.272,102.687 137.830,102.305 138.032 C 101.923 138.234,101.433 138.400,101.215 138.400 C 100.837 138.400,99.718 138.891,92.612 142.179 C 90.859 142.990,87.698 144.632,85.587 145.827 C 80.993 148.428,80.307 148.474,81.568 146.095 C 81.770 145.713,82.342 144.320,82.837 143.000 C 90.121 123.602,104.468 95.319,115.828 77.966 C 117.353 75.637,118.780 73.450,119.000 73.105 C 121.417 69.320,128.566 59.713,132.919 54.400 C 133.190 54.070,134.039 52.990,134.806 52.000 C 140.506 44.642,154.280 31.454,162.287 25.688 C 177.556 14.694,195.698 9.705,209.400 12.732 C 212.855 13.496,217.287 14.759,218.095 15.211 C 218.477 15.425,218.986 15.600,219.226 15.600 C 221.515 15.600,236.295 24.298,242.200 29.121 C 251.772 36.937,262.784 48.458,270.928 59.177 C 275.892 65.710,277.944 66.961,281.257 65.477 C 281.996 65.146,283.095 64.765,283.700 64.630 C 284.447 64.463,284.800 64.131,284.800 63.592 C 284.800 63.157,284.980 62.800,285.200 62.800 C 285.773 62.800,285.695 58.364,285.100 57.083 C 284.825 56.491,284.465 56.005,284.300 56.003 C 284.135 56.001,284.000 55.730,284.000 55.400 C 284.000 55.071,283.280 54.059,282.400 53.152 C 281.520 52.245,280.800 51.327,280.800 51.112 C 280.800 50.897,280.260 50.217,279.600 49.600 C 278.940 48.983,278.400 48.308,278.400 48.099 C 278.400 47.890,277.905 47.193,277.300 46.550 C 276.695 45.908,275.666 44.666,275.012 43.791 C 274.359 42.916,272.964 41.357,271.912 40.326 C 270.861 39.295,270.000 38.268,270.000 38.042 C 270.000 37.398,255.644 23.200,254.992 23.200 C 254.852 23.200,254.046 22.480,253.200 21.600 C 252.354 20.720,251.454 20.000,251.200 20.000 C 250.946 20.000,250.046 19.280,249.200 18.400 C 248.354 17.520,247.495 16.800,247.291 16.800 C 247.086 16.800,246.354 16.260,245.663 15.600 C 244.972 14.940,244.175 14.400,243.892 14.400 C 243.609 14.400,243.117 14.040,242.800 13.600 C 242.483 13.160,242.071 12.800,241.884 12.800 C 241.697 12.800,240.759 12.260,239.800 11.600 C 238.841 10.940,237.961 10.400,237.846 10.400 C 237.730 10.400,236.972 9.950,236.162 9.400 C 235.351 8.850,234.353 8.400,233.944 8.400 C 233.535 8.400,233.200 8.220,233.200 8.000 C 233.200 7.780,232.840 7.600,232.400 7.600 C 231.960 7.600,231.600 7.420,231.600 7.200 C 231.600 6.980,231.240 6.800,230.800 6.800 C 230.360 6.800,230.000 6.620,230.000 6.400 C 230.000 6.180,229.640 6.000,229.200 6.000 C 228.760 6.000,228.400 5.820,228.400 5.600 C 228.400 5.380,227.860 5.200,227.200 5.200 C 226.540 5.200,225.999 5.065,225.997 4.900 C 225.993 4.494,224.014 3.600,223.120 3.600 C 222.724 3.600,222.400 3.420,222.400 3.200 C 222.400 2.980,221.860 2.800,221.200 2.800 C 220.540 2.800,220.000 2.620,220.000 2.400 C 220.000 2.180,219.460 2.000,218.800 2.000 C 218.140 2.000,217.600 1.820,217.600 1.600 C 217.600 1.380,216.916 1.200,216.080 1.200 C 215.244 1.200,214.344 0.984,214.081 0.721 C 213.597 0.237,192.705 -0.126,188.200 0.272 M220.300 133.443 C 225.622 133.744,225.600 134.400,220.267 134.400 C 211.153 134.400,206.448 137.103,204.620 143.390 L 203.978 145.600 200.005 145.600 L 196.032 145.600 195.572 143.900 C 194.976 141.700,194.369 140.387,193.500 139.425 C 193.115 138.998,192.800 138.548,192.799 138.425 C 192.793 136.579,185.845 134.415,179.900 134.406 C 177.304 134.402,175.600 134.241,175.600 134.000 C 175.600 133.770,177.000 133.579,178.900 133.550 C 180.715 133.523,183.460 133.362,185.000 133.192 C 187.949 132.866,213.300 133.047,220.300 133.443 M136.956 139.929 C 137.068 140.109,136.917 140.725,136.620 141.296 C 136.324 141.867,135.952 143.114,135.794 144.067 C 135.274 147.206,135.284 147.200,130.560 147.200 C 125.366 147.200,124.800 146.948,124.800 144.635 C 124.800 142.722,125.206 142.212,127.000 141.875 C 128.671 141.561,131.044 140.970,133.400 140.283 C 135.810 139.580,136.686 139.492,136.956 139.929 M266.280 140.239 C 269.162 141.032,271.438 141.584,273.000 141.867 C 274.570 142.152,275.200 143.009,275.200 144.862 C 275.200 146.969,274.463 147.250,269.301 147.114 L 265.000 147.000 264.273 144.200 C 263.096 139.667,263.085 139.600,263.534 139.600 C 263.769 139.600,265.005 139.887,266.280 140.239 M113.772 150.966 C 113.928 153.489,114.296 157.408,114.591 159.674 C 115.242 164.680,115.318 164.545,111.991 164.306 C 108.647 164.067,106.309 162.654,104.930 160.037 C 103.686 157.678,103.515 149.735,104.700 149.344 C 105.085 149.217,106.163 148.773,107.096 148.357 C 108.028 147.941,109.053 147.600,109.372 147.600 C 109.691 147.600,110.064 147.420,110.200 147.200 C 110.336 146.980,110.876 146.800,111.400 146.800 C 111.924 146.800,112.466 146.617,112.604 146.393 C 113.195 145.437,113.507 146.658,113.772 150.966 M183.943 152.583 L 183.800 158.766 182.097 160.501 C 179.525 163.122,178.942 163.200,161.994 163.200 L 147.200 163.200 147.200 154.800 L 147.200 146.400 165.643 146.400 L 184.085 146.400 183.943 152.583 M252.800 154.800 L 252.800 163.200 238.006 163.200 C 216.438 163.200,216.016 162.968,216.004 151.100 L 216.000 146.400 234.400 146.400 L 252.800 146.400 252.800 154.800 M289.780 147.242 C 289.989 147.439,290.396 147.600,290.684 147.600 C 291.149 147.600,293.963 148.730,295.600 149.574 C 296.411 149.992,296.612 154.645,295.955 157.783 C 295.082 161.947,291.818 164.392,287.124 164.398 C 284.750 164.401,284.791 164.504,285.407 160.064 C 285.692 158.009,286.054 154.229,286.210 151.664 C 286.367 149.099,286.581 146.854,286.686 146.677 C 286.909 146.298,289.227 146.721,289.780 147.242 M92.754 160.164 C 94.488 169.683,101.877 175.451,112.990 175.962 C 118.809 176.229,118.261 175.911,119.839 179.933 C 127.098 198.426,142.738 215.390,161.100 224.690 L 162.400 225.348 162.400 229.241 C 162.400 233.699,161.708 235.830,159.620 237.800 L 158.348 239.000 139.207 239.111 L 120.065 239.222 119.120 238.311 C 118.600 237.810,117.011 236.056,115.588 234.413 C 114.164 232.770,112.577 230.970,112.061 230.413 C 108.728 226.817,94.137 208.137,90.367 202.639 C 77.020 183.175,72.892 174.504,75.006 170.374 C 76.952 166.574,81.676 162.096,87.917 158.137 L 91.800 155.674 92.062 156.737 C 92.206 157.322,92.517 158.864,92.754 160.164 M318.073 162.409 C 327.996 170.383,327.806 174.572,316.733 192.000 C 307.145 207.091,282.420 238.286,279.470 239.015 C 278.991 239.133,270.050 239.178,259.600 239.115 L 240.600 239.000 239.134 237.878 C 236.865 236.143,235.999 233.880,236.005 229.704 L 236.010 226.200 239.505 224.400 C 257.658 215.051,273.262 197.882,280.403 179.400 C 281.763 175.880,281.554 176.000,286.350 176.000 C 298.318 176.000,306.393 169.121,307.811 157.717 L 308.070 155.635 311.514 157.770 C 313.408 158.944,316.360 161.032,318.073 162.409 M204.361 158.060 C 204.602 158.753,204.800 159.745,204.800 160.265 C 204.800 160.785,204.960 161.523,205.156 161.905 C 205.352 162.287,205.935 163.500,206.451 164.600 C 208.434 168.829,213.572 172.813,218.852 174.219 C 222.764 175.260,254.111 175.046,257.018 173.959 C 262.170 172.031,264.784 167.706,264.795 161.087 L 264.800 158.375 269.500 158.487 C 273.437 158.582,274.177 158.697,274.059 159.200 C 273.981 159.530,273.767 160.700,273.582 161.800 C 272.939 165.627,272.360 167.626,270.007 174.148 C 268.962 177.042,265.547 183.908,263.812 186.600 C 263.103 187.700,262.144 189.230,261.680 190.000 C 261.216 190.770,260.423 191.850,259.918 192.400 C 259.413 192.950,258.473 194.120,257.830 195.000 C 256.343 197.033,249.505 203.862,247.400 205.415 C 246.520 206.064,245.710 206.695,245.600 206.817 C 245.490 206.939,244.770 207.475,244.000 208.008 C 243.230 208.542,242.251 209.298,241.825 209.689 C 241.398 210.080,240.921 210.400,240.765 210.400 C 240.609 210.400,239.251 211.148,237.747 212.062 C 231.385 215.927,222.144 219.536,215.400 220.791 C 214.080 221.036,212.100 221.444,211.000 221.697 C 207.856 222.419,192.158 222.249,188.000 221.447 C 184.066 220.688,182.002 220.224,179.900 219.627 C 179.075 219.392,177.815 219.039,177.100 218.843 C 172.006 217.445,160.765 211.889,157.400 209.106 C 156.960 208.742,155.430 207.593,154.000 206.552 C 145.025 200.019,135.972 188.228,131.002 176.600 C 130.626 175.720,130.164 174.640,129.976 174.200 C 129.788 173.760,129.151 171.960,128.561 170.200 C 127.525 167.110,127.274 166.106,126.454 161.800 C 126.245 160.700,126.012 159.530,125.937 159.200 C 125.822 158.698,126.565 158.582,130.500 158.487 L 135.200 158.375 135.200 160.255 C 135.200 167.774,137.853 172.167,143.600 174.163 C 146.150 175.049,177.852 175.096,181.148 174.219 C 186.428 172.813,191.566 168.829,193.549 164.600 C 194.065 163.500,194.648 162.287,194.844 161.905 C 195.040 161.523,195.200 160.816,195.200 160.334 C 195.200 159.851,195.416 158.859,195.680 158.128 L 196.161 156.800 200.041 156.800 L 203.922 156.800 204.361 158.060 M177.200 230.687 C 177.530 230.808,178.565 231.063,179.500 231.254 C 180.435 231.444,182.055 231.780,183.100 232.001 C 194.210 234.345,208.682 234.029,220.800 231.179 C 224.211 230.376,224.166 230.357,224.476 232.800 C 224.629 234.010,224.941 235.720,225.168 236.600 C 225.395 237.480,225.585 238.425,225.590 238.700 C 225.598 239.095,220.048 239.200,199.150 239.200 L 172.700 239.200 172.964 237.900 C 173.110 237.185,173.424 235.340,173.664 233.800 C 173.904 232.260,174.163 230.771,174.241 230.490 C 174.375 230.007,175.561 230.085,177.200 230.687 M313.900 251.508 C 314.834 252.007,316.094 253.164,316.700 254.079 L 317.800 255.741 317.800 311.971 L 317.800 368.200 200.000 368.200 L 82.200 368.200 82.083 313.000 C 81.997 272.154,82.087 257.384,82.428 256.200 C 83.312 253.140,85.201 251.423,88.400 250.772 C 89.170 250.616,139.840 250.513,201.000 250.544 L 312.200 250.600 313.900 251.508 M336.127 291.350 C 336.827 292.202,338.009 293.642,338.754 294.550 C 343.534 300.378,356.400 323.476,356.400 326.230 C 356.400 326.362,357.325 328.929,358.455 331.935 C 360.507 337.394,361.798 341.137,362.410 343.400 C 362.588 344.060,363.301 346.490,363.993 348.800 C 365.284 353.104,365.850 355.262,367.245 361.200 C 368.218 365.341,368.596 367.082,369.200 370.200 C 369.456 371.520,369.821 373.320,370.012 374.200 C 370.202 375.080,370.541 376.970,370.765 378.400 C 370.989 379.830,371.389 382.313,371.653 383.918 C 372.393 388.405,373.024 388.176,359.487 388.318 C 345.703 388.463,346.297 388.569,346.635 386.023 C 347.892 376.546,340.529 368.118,330.900 368.014 L 329.600 368.000 329.600 326.667 C 329.600 303.933,329.735 285.195,329.900 285.026 C 330.182 284.737,333.281 287.885,336.127 291.350 M194.200 291.290 C 193.540 291.512,192.687 291.853,192.305 292.047 C 191.923 292.241,191.263 292.400,190.839 292.400 C 190.414 292.400,190.007 292.535,189.933 292.700 C 189.860 292.865,188.917 293.448,187.837 293.995 C 183.594 296.147,178.699 302.302,177.176 307.400 C 176.913 308.280,176.541 309.413,176.349 309.919 C 175.467 312.242,176.022 318.719,177.487 323.200 C 184.598 344.954,217.055 343.212,223.365 320.738 C 225.937 311.578,220.667 298.214,212.984 294.414 C 212.333 294.092,211.350 293.541,210.800 293.189 C 210.250 292.837,208.990 292.317,208.000 292.033 C 207.010 291.749,205.787 291.355,205.281 291.158 C 204.055 290.680,195.715 290.779,194.200 291.290 M205.400 303.042 C 212.784 306.513,215.173 315.549,210.471 322.220 C 205.383 329.438,194.614 329.435,189.524 322.213 C 182.013 311.557,193.643 297.514,205.400 303.042 M332.851 380.227 C 335.344 381.515,335.820 385.493,333.715 387.443 L 332.683 388.400 200.128 388.400 C 78.936 388.400,67.488 388.345,66.589 387.756 C 64.256 386.227,64.463 381.882,66.941 380.371 C 68.719 379.287,330.759 379.145,332.851 380.227 " stroke="none" fill="#040404" fill-rule="evenodd"></path><path id="path4" d="M190.800 133.187 L 185.000 133.457 192.600 133.505 C 196.780 133.531,203.620 133.566,207.800 133.583 C 212.863 133.602,215.200 133.742,214.800 134.000 C 214.389 134.266,215.363 134.390,217.900 134.394 C 219.935 134.397,221.600 134.243,221.600 134.051 C 221.600 133.386,199.730 132.772,190.800 133.187 M178.400 134.000 C 178.400 134.241,179.948 134.389,182.300 134.372 C 184.851 134.353,185.923 134.225,185.400 134.000 C 184.262 133.511,178.400 133.511,178.400 134.000 M188.375 135.277 C 192.213 136.750,194.132 139.161,196.207 145.115 C 196.459 145.838,203.690 145.625,203.838 144.890 C 203.894 144.609,203.849 144.565,203.737 144.790 C 203.621 145.023,202.031 145.200,200.054 145.200 L 196.575 145.200 196.016 143.309 C 194.702 138.858,190.063 134.329,186.913 134.421 C 186.521 134.432,187.179 134.817,188.375 135.277 M210.600 135.382 C 207.363 136.957,204.764 139.992,204.245 142.800 C 204.048 143.869,204.191 143.685,204.849 142.025 C 205.985 139.161,208.794 136.364,211.625 135.277 C 212.821 134.817,213.530 134.434,213.200 134.425 C 212.870 134.415,211.700 134.846,210.600 135.382 M134.000 140.400 L 133.000 140.720 134.000 140.754 C 134.550 140.773,135.270 140.613,135.600 140.400 C 136.364 139.906,135.542 139.906,134.000 140.400 M135.850 141.591 C 135.493 142.485,135.216 143.618,135.236 144.108 C 135.261 144.731,135.386 144.578,135.650 143.600 C 135.858 142.830,136.232 141.795,136.481 141.301 C 136.731 140.806,136.837 140.303,136.717 140.184 C 136.598 140.065,136.208 140.698,135.850 141.591 M263.414 140.724 C 264.076 142.312,264.800 144.997,264.800 145.864 C 264.800 146.796,264.823 146.800,269.821 146.800 L 274.842 146.800 274.721 144.731 C 274.639 143.326,274.408 142.600,274.000 142.466 C 273.495 142.301,273.483 142.371,273.927 142.909 C 274.217 143.260,274.397 144.144,274.327 144.874 L 274.200 146.200 269.700 146.313 L 265.200 146.426 265.200 145.263 C 265.200 144.624,264.938 143.358,264.618 142.450 L 264.035 140.800 265.484 140.800 C 267.390 140.800,266.972 140.429,264.825 140.216 C 263.358 140.070,263.170 140.137,263.414 140.724 M130.800 141.200 L 129.800 141.520 130.800 141.554 C 131.350 141.573,132.070 141.413,132.400 141.200 C 133.164 140.706,132.342 140.706,130.800 141.200 M267.400 141.200 C 267.536 141.420,268.222 141.582,268.924 141.560 C 270.143 141.522,270.155 141.506,269.200 141.200 C 267.764 140.740,267.116 140.740,267.400 141.200 M127.365 141.977 C 125.414 142.444,125.200 142.725,125.200 144.824 L 125.200 146.800 130.200 146.800 C 135.132 146.800,135.199 146.788,135.154 145.900 C 135.118 145.203,135.065 145.161,134.922 145.713 C 134.756 146.352,134.273 146.414,130.268 146.313 L 125.800 146.200 125.673 144.874 C 125.517 143.250,126.158 142.402,127.549 142.394 C 128.127 142.391,128.870 142.213,129.200 142.000 C 129.942 141.521,129.307 141.513,127.365 141.977 M270.600 142.000 C 270.736 142.220,271.422 142.382,272.124 142.360 C 273.343 142.322,273.355 142.306,272.400 142.000 C 270.964 141.540,270.316 141.540,270.600 142.000 M110.000 147.456 C 106.702 148.747,105.551 149.218,104.800 149.589 C 104.150 149.909,103.741 155.431,104.188 157.853 C 104.444 159.246,106.712 162.622,107.118 162.215 C 107.260 162.073,107.193 161.831,106.969 161.678 C 105.262 160.513,104.676 158.711,104.638 154.501 C 104.597 149.984,104.487 150.232,107.000 149.200 C 107.660 148.929,108.513 148.548,108.895 148.353 C 109.277 148.159,109.941 148.000,110.371 148.000 C 110.801 148.000,111.264 147.820,111.400 147.600 C 112.534 145.765,113.200 147.249,113.240 151.700 C 113.262 154.175,113.431 156.650,113.615 157.200 C 113.954 158.208,113.726 149.040,113.369 147.300 C 113.145 146.204,113.207 146.201,110.000 147.456 M286.644 148.500 C 286.155 153.304,285.493 161.110,285.448 162.600 L 285.400 164.200 287.000 164.248 L 288.600 164.295 287.100 164.124 C 286.275 164.029,285.600 163.904,285.600 163.845 C 285.600 163.787,285.855 161.863,286.167 159.570 C 286.479 157.276,286.859 153.555,287.011 151.300 C 287.301 146.976,287.321 146.942,289.081 147.650 C 289.697 147.897,290.650 148.281,291.200 148.503 C 291.750 148.725,292.650 149.084,293.200 149.300 C 293.750 149.516,294.513 149.852,294.895 150.047 C 295.915 150.566,296.163 150.479,295.600 149.800 C 295.326 149.470,294.852 149.200,294.546 149.200 C 294.240 149.200,293.677 149.041,293.295 148.847 C 292.094 148.236,287.386 146.400,287.021 146.400 C 286.931 146.400,286.761 147.345,286.644 148.500 M295.449 156.615 C 295.312 156.973,295.200 157.628,295.200 158.071 C 295.200 159.889,292.632 162.583,290.237 163.279 C 288.927 163.659,288.781 163.784,289.506 163.906 C 291.548 164.247,295.303 160.588,295.839 157.734 C 296.114 156.266,295.862 155.541,295.449 156.615 M195.616 159.498 C 194.180 165.948,190.001 171.009,184.110 173.431 C 182.839 173.954,182.126 174.385,182.525 174.391 C 185.574 174.430,192.259 168.755,194.292 164.400 C 195.484 161.848,196.666 157.732,196.309 157.376 C 196.210 157.276,195.898 158.231,195.616 159.498 M203.830 158.700 C 204.872 164.569,210.733 172.800,213.871 172.800 C 214.050 172.800,213.306 172.166,212.216 171.391 C 208.125 168.483,205.550 164.505,204.389 159.300 C 203.853 156.898,203.429 156.443,203.830 158.700 M126.275 158.687 C 126.171 158.859,126.226 159.720,126.397 160.600 L 126.708 162.200 126.754 160.500 L 126.800 158.800 130.782 158.800 L 134.765 158.800 134.909 161.500 L 135.052 164.200 135.026 161.400 L 135.000 158.600 130.732 158.487 C 128.384 158.425,126.379 158.515,126.275 158.687 M265.067 158.667 C 264.920 158.813,264.800 160.337,264.800 162.052 C 264.800 167.647,262.345 171.771,257.766 173.867 L 255.662 174.830 237.068 174.715 C 226.842 174.652,218.683 174.732,218.938 174.894 C 219.192 175.056,227.630 175.191,237.688 175.194 L 255.976 175.200 258.088 174.230 C 262.881 172.029,265.183 168.099,265.194 162.100 L 265.200 158.800 269.200 158.800 L 273.200 158.800 273.200 160.054 C 273.200 160.743,273.006 162.048,272.768 162.954 C 272.531 163.859,272.153 165.320,271.929 166.200 C 271.705 167.080,271.360 168.113,271.161 168.495 C 270.962 168.877,270.800 169.516,270.800 169.915 C 270.800 170.314,270.651 170.811,270.470 171.020 C 270.288 171.229,269.896 172.210,269.599 173.200 C 268.771 175.962,265.384 182.975,263.389 186.059 C 262.405 187.580,261.600 188.999,261.600 189.212 C 261.600 189.426,261.463 189.600,261.296 189.600 C 260.888 189.600,259.892 191.225,260.145 191.478 C 260.877 192.210,268.606 177.882,270.328 172.600 C 270.830 171.060,271.391 169.440,271.575 169.000 C 272.132 167.664,273.309 162.891,273.759 160.136 C 273.907 159.229,273.792 158.806,273.350 158.636 C 272.503 158.311,265.396 158.337,265.067 158.667 M114.227 161.274 L 114.417 163.948 113.108 164.110 L 111.800 164.272 113.113 164.336 C 114.780 164.417,115.009 163.834,114.463 160.895 L 114.037 158.600 114.227 161.274 M108.020 162.991 C 108.345 163.316,109.238 163.681,110.005 163.801 C 111.297 164.003,111.326 163.986,110.400 163.569 C 109.850 163.321,109.087 162.956,108.705 162.759 C 107.664 162.221,107.354 162.326,108.020 162.991 M126.811 162.600 C 126.806 164.022,129.138 171.799,130.439 174.696 C 130.857 175.628,131.200 176.495,131.200 176.621 C 131.200 177.628,136.344 186.990,136.701 186.632 C 136.826 186.507,136.640 186.086,136.287 185.696 C 135.934 185.306,134.569 182.739,133.254 179.993 C 131.192 175.686,130.334 173.431,127.996 166.172 C 127.778 165.496,127.597 164.596,127.594 164.172 C 127.591 163.747,127.413 163.130,127.200 162.800 C 126.987 162.470,126.812 162.380,126.811 162.600 M135.415 166.400 C 135.819 169.227,140.374 174.431,142.400 174.381 C 142.730 174.373,142.417 174.055,141.704 173.675 C 138.968 172.215,136.887 169.688,135.714 166.400 L 135.214 165.000 135.415 166.400 M214.400 173.039 C 214.400 173.378,216.912 174.436,217.451 174.324 C 217.779 174.256,217.227 173.907,216.224 173.550 C 215.221 173.192,214.400 172.962,214.400 173.039 M143.738 174.894 C 144.348 175.282,181.098 175.288,181.338 174.900 C 181.440 174.735,172.918 174.600,162.400 174.600 C 151.882 174.600,143.484 174.732,143.738 174.894 M137.251 188.000 C 137.790 189.138,142.937 195.989,143.120 195.811 C 143.185 195.747,142.080 194.140,140.663 192.239 C 139.246 190.339,137.792 188.383,137.432 187.892 L 136.777 187.000 137.251 188.000 M259.000 192.515 C 258.780 192.782,257.797 193.990,256.815 195.200 C 254.358 198.229,249.661 202.712,245.600 205.905 C 243.730 207.375,242.110 208.673,242.000 208.789 C 241.890 208.905,241.395 209.225,240.900 209.500 C 240.405 209.775,239.595 210.225,239.100 210.500 C 238.605 210.775,238.110 211.090,238.000 211.200 C 237.218 211.982,230.798 215.094,226.200 216.921 C 213.596 221.928,197.138 223.018,183.000 219.782 C 180.800 219.279,178.942 218.925,178.870 218.996 C 178.659 219.207,182.781 220.280,185.800 220.800 C 187.340 221.065,189.464 221.443,190.520 221.641 C 193.153 222.134,207.326 222.094,210.233 221.587 C 219.090 220.039,224.530 218.413,231.074 215.356 C 239.031 211.637,245.547 207.181,251.740 201.222 C 254.954 198.128,260.271 191.988,259.712 192.015 C 259.540 192.024,259.220 192.249,259.000 192.515 M143.600 196.421 C 143.600 197.483,155.528 207.862,159.400 210.169 C 161.182 211.231,160.048 210.317,154.400 206.139 C 152.970 205.081,149.955 202.400,147.700 200.181 C 145.445 197.963,143.600 196.271,143.600 196.421 M161.400 211.444 C 162.671 212.427,172.489 217.203,173.177 217.173 C 173.541 217.157,173.384 216.964,172.800 216.709 C 169.409 215.227,163.237 212.183,162.338 211.549 C 161.066 210.651,160.258 210.561,161.400 211.444 M176.400 218.400 C 176.730 218.613,177.360 218.778,177.800 218.766 L 178.600 218.744 177.800 218.400 C 176.604 217.886,175.605 217.886,176.400 218.400 M174.222 230.941 C 173.807 233.014,173.681 236.397,174.028 236.183 C 174.233 236.056,174.400 234.773,174.400 233.331 L 174.400 230.709 175.500 230.911 C 176.105 231.022,178.528 231.568,180.885 232.123 C 183.241 232.679,186.391 233.231,187.885 233.350 C 190.846 233.587,190.745 233.562,184.000 232.366 C 182.570 232.113,180.410 231.641,179.200 231.318 C 174.224 229.990,174.410 230.004,174.222 230.941 M220.600 231.378 C 219.500 231.666,217.430 232.111,216.000 232.365 C 209.226 233.569,209.154 233.588,212.115 233.350 C 213.609 233.231,216.755 232.698,219.108 232.167 C 221.461 231.635,223.524 231.200,223.693 231.200 C 223.862 231.200,224.003 232.145,224.006 233.300 C 224.009 234.455,224.181 235.667,224.387 235.992 C 224.632 236.379,224.687 235.756,224.547 234.192 C 224.204 230.354,224.284 230.411,220.600 231.378 M193.600 234.033 C 196.974 234.388,203.552 234.388,206.600 234.035 C 208.041 233.867,205.404 233.757,200.000 233.758 C 194.504 233.760,192.012 233.867,193.600 234.033 M173.151 237.691 C 173.021 238.290,173.009 238.875,173.124 238.991 C 173.456 239.323,225.135 239.233,225.313 238.900 C 225.402 238.735,225.340 238.150,225.177 237.600 L 224.880 236.600 224.840 237.700 L 224.800 238.800 199.227 238.800 L 173.653 238.800 173.520 237.700 L 173.387 236.600 173.151 237.691 M86.481 251.651 C 81.684 254.026,81.940 250.431,82.080 313.600 L 82.200 367.800 200.000 367.800 L 317.800 367.800 317.920 313.600 C 318.060 250.298,318.326 253.957,313.425 251.654 L 311.609 250.800 199.904 250.800 L 88.200 250.801 86.481 251.651 M312.471 251.818 C 317.499 253.531,317.179 249.414,317.190 312.700 L 317.200 367.600 200.000 367.600 L 82.800 367.600 82.810 312.700 C 82.815 281.694,82.975 257.126,83.178 256.251 C 83.631 254.302,85.663 252.172,87.552 251.669 C 90.300 250.936,310.311 251.082,312.471 251.818 M196.200 290.276 C 195.100 290.371,194.029 290.617,193.820 290.824 C 193.611 291.031,193.130 291.200,192.751 291.200 C 191.850 291.200,188.001 292.910,188.001 293.310 C 188.000 293.481,188.567 293.327,189.260 292.969 C 195.767 289.604,205.281 289.819,211.828 293.478 C 212.802 294.023,213.598 294.318,213.596 294.134 C 213.591 293.698,208.215 291.200,207.280 291.200 C 206.884 291.200,206.389 291.036,206.180 290.837 C 205.730 290.406,199.054 290.031,196.200 290.276 M185.800 294.490 C 183.208 296.357,178.393 301.727,178.877 302.211 C 178.968 302.301,179.753 301.376,180.621 300.155 C 181.489 298.934,183.433 296.959,184.941 295.767 C 187.603 293.663,188.217 292.748,185.800 294.490 M216.893 297.314 C 218.854 299.267,220.438 301.291,221.219 302.839 C 221.898 304.182,222.535 305.198,222.636 305.098 C 223.377 304.356,217.857 297.075,215.075 295.125 C 214.374 294.634,215.192 295.619,216.893 297.314 M199.305 302.287 C 199.914 302.379,200.814 302.377,201.305 302.282 C 201.797 302.187,201.300 302.111,200.200 302.114 C 199.100 302.117,198.697 302.195,199.305 302.287 M195.600 302.800 C 195.067 303.145,195.067 303.188,195.600 303.188 C 195.930 303.188,196.470 303.013,196.800 302.800 C 197.333 302.455,197.333 302.412,196.800 302.412 C 196.470 302.412,195.930 302.587,195.600 302.800 M203.200 302.800 C 203.530 303.013,204.070 303.188,204.400 303.188 C 204.933 303.188,204.933 303.145,204.400 302.800 C 204.070 302.587,203.530 302.412,203.200 302.412 C 202.667 302.412,202.667 302.455,203.200 302.800 M177.821 303.824 C 177.452 304.388,177.211 305.032,177.285 305.256 C 177.360 305.481,177.729 305.020,178.104 304.232 C 178.903 302.556,178.774 302.370,177.821 303.824 M192.000 304.940 C 191.450 305.443,190.553 306.383,190.008 307.028 C 189.462 307.672,189.957 307.307,191.108 306.215 C 193.000 304.420,193.403 303.974,193.100 304.013 C 193.045 304.020,192.550 304.437,192.000 304.940 M207.710 304.961 C 208.321 305.521,209.279 306.479,209.839 307.090 L 210.858 308.200 209.986 306.943 C 209.506 306.252,208.548 305.294,207.857 304.814 L 206.600 303.942 207.710 304.961 M176.666 306.443 C 176.582 306.749,176.308 307.643,176.056 308.428 C 175.805 309.214,175.622 310.564,175.650 311.428 C 175.699 312.969,175.706 312.961,176.021 311.000 C 176.197 309.900,176.532 308.382,176.764 307.626 C 176.996 306.871,177.104 306.170,177.003 306.069 C 176.902 305.968,176.750 306.136,176.666 306.443 M222.828 306.276 C 222.918 307.315,223.544 308.196,223.572 307.324 C 223.587 306.842,223.420 306.336,223.200 306.200 C 222.980 306.064,222.813 306.098,222.828 306.276 M210.800 308.516 C 210.800 308.678,210.961 309.123,211.159 309.505 C 211.356 309.887,211.711 310.650,211.948 311.200 C 212.359 312.153,212.367 312.144,212.130 311.000 C 211.901 309.896,210.800 307.840,210.800 308.516 M223.880 309.891 C 224.190 311.900,224.400 312.061,224.400 310.290 C 224.400 309.497,224.231 308.743,224.024 308.615 C 223.799 308.476,223.741 308.991,223.880 309.891 M212.509 314.800 C 212.509 315.790,212.587 316.195,212.682 315.700 C 212.778 315.205,212.778 314.395,212.682 313.900 C 212.587 313.405,212.509 313.810,212.509 314.800 M224.509 314.800 C 224.509 315.790,224.587 316.195,224.682 315.700 C 224.778 315.205,224.778 314.395,224.682 313.900 C 224.587 313.405,224.509 313.810,224.509 314.800 M175.293 314.800 C 175.293 315.570,175.375 315.885,175.476 315.500 C 175.576 315.115,175.576 314.485,175.476 314.100 C 175.375 313.715,175.293 314.030,175.293 314.800 M175.600 318.510 C 175.600 319.523,175.758 320.450,175.950 320.569 C 176.272 320.768,176.079 317.210,175.747 316.833 C 175.666 316.742,175.600 317.496,175.600 318.510 M224.062 318.400 C 224.022 318.950,223.877 319.850,223.740 320.400 C 223.549 321.168,223.603 321.296,223.973 320.953 C 224.251 320.694,224.387 319.850,224.295 318.953 C 224.204 318.074,224.103 317.834,224.062 318.400 M188.960 321.021 C 189.605 322.381,192.566 325.263,194.042 325.967 C 194.977 326.412,194.976 326.407,194.000 325.725 C 192.710 324.824,189.971 322.083,189.078 320.800 L 188.382 319.800 188.960 321.021 M210.636 321.130 C 210.064 322.237,207.978 324.297,205.996 325.712 C 205.012 326.414,205.012 326.417,205.958 325.967 C 207.921 325.031,212.527 320.000,211.421 320.000 C 211.311 320.000,210.958 320.509,210.636 321.130 M176.434 321.800 C 176.422 322.240,176.587 322.870,176.800 323.200 C 177.314 323.995,177.314 322.996,176.800 321.800 L 176.456 321.000 176.434 321.800 M223.246 321.867 C 223.221 322.124,223.084 322.664,222.941 323.067 C 222.740 323.636,222.794 323.697,223.179 323.342 C 223.452 323.091,223.589 322.551,223.484 322.142 C 223.379 321.734,223.272 321.610,223.246 321.867 M221.878 325.405 C 221.512 326.172,221.346 326.800,221.509 326.800 C 221.866 326.800,222.960 324.426,222.715 324.182 C 222.621 324.087,222.244 324.638,221.878 325.405 M178.800 327.463 C 178.800 329.402,188.843 338.052,190.466 337.511 C 190.669 337.444,189.883 336.888,188.718 336.277 C 185.307 334.489,182.119 331.685,180.106 328.700 C 179.116 327.232,178.800 326.933,178.800 327.463 M199.100 327.482 C 199.595 327.578,200.405 327.578,200.900 327.482 C 201.395 327.387,200.990 327.309,200.000 327.309 C 199.010 327.309,198.605 327.387,199.100 327.482 M218.604 330.435 C 217.213 332.314,214.231 334.702,211.161 336.394 C 209.972 337.049,209.202 337.589,209.450 337.593 C 210.261 337.606,213.760 335.500,215.872 333.726 C 218.001 331.938,220.728 328.793,220.134 328.809 C 219.950 328.815,219.262 329.546,218.604 330.435 M191.600 338.000 C 191.930 338.213,192.470 338.388,192.800 338.388 C 193.333 338.388,193.333 338.345,192.800 338.000 C 192.470 337.787,191.930 337.612,191.600 337.612 C 191.067 337.612,191.067 337.655,191.600 338.000 M207.200 338.000 C 206.667 338.345,206.667 338.388,207.200 338.388 C 207.530 338.388,208.070 338.213,208.400 338.000 C 208.933 337.655,208.933 337.612,208.400 337.612 C 208.070 337.612,207.530 337.787,207.200 338.000 M194.000 338.797 C 194.541 339.150,197.964 339.399,197.567 339.056 C 197.475 338.977,196.500 338.799,195.400 338.659 C 194.035 338.486,193.590 338.530,194.000 338.797 M203.800 338.800 L 202.200 339.086 203.800 339.137 C 204.680 339.165,205.670 339.013,206.000 338.800 C 206.715 338.338,206.381 338.338,203.800 338.800 M67.600 380.283 C 65.440 381.081,64.677 385.477,66.400 387.200 C 67.197 387.997,67.733 388.000,199.746 388.000 L 332.292 388.000 333.346 387.171 C 334.934 385.922,334.916 381.957,333.318 380.909 C 332.250 380.210,69.473 379.590,67.600 380.283 " stroke="none" fill="#8b8b91" fill-rule="evenodd"></path></g></svg>